<svg width="29" height="30" viewBox="0 0 29 30" fill="none" xmlns="http://www.w3.org/2000/svg">
<path d="M5.30786 0.75C5.30786 0.33579 5.64735 0 6.06615 0C6.48495 0 6.82444 0.33579 6.82444 0.75V5.25C6.82444 5.66423 6.48495 6 6.06615 6C5.64735 6 5.30786 5.66423 5.30786 5.25V0.75Z" fill="#333333"/>
<path d="M17.4407 0.75C17.4407 0.33579 17.7802 0 18.199 0C18.6178 0 18.9572 0.33579 18.9572 0.75V5.25C18.9572 5.66423 18.6178 6 18.199 6C17.7802 6 17.4407 5.66423 17.4407 5.25V0.75Z" fill="#333333"/>
<path fill-rule="evenodd" clip-rule="evenodd" d="M6.82465 14.25H5.30808V15.75H6.82465V14.25ZM5.30808 12.75C4.47047 12.75 3.7915 13.4216 3.7915 14.25V15.75C3.7915 16.5784 4.47047 17.25 5.30808 17.25H6.82465C7.66226 17.25 8.34123 16.5784 8.34123 15.75V14.25C8.34123 13.4216 7.66226 12.75 6.82465 12.75H5.30808Z" fill="#333333"/>
<path fill-rule="evenodd" clip-rule="evenodd" d="M12.8908 14.25H11.3742V15.75H12.8908V14.25ZM11.3742 12.75C10.5366 12.75 9.85767 13.4216 9.85767 14.25V15.75C9.85767 16.5784 10.5366 17.25 11.3742 17.25H12.8908C13.7284 17.25 14.4074 16.5784 14.4074 15.75V14.25C14.4074 13.4216 13.7284 12.75 12.8908 12.75H11.3742Z" fill="#333333"/>
<path fill-rule="evenodd" clip-rule="evenodd" d="M18.9572 14.25H17.4406V15.75H18.9572V14.25ZM17.4406 12.75C16.603 12.75 15.9241 13.4216 15.9241 14.25V15.75C15.9241 16.5784 16.603 17.25 17.4406 17.25H18.9572C19.7948 17.25 20.4738 16.5784 20.4738 15.75V14.25C20.4738 13.4216 19.7948 12.75 18.9572 12.75H17.4406Z" fill="#333333"/>
<path fill-rule="evenodd" clip-rule="evenodd" d="M6.82465 20.25H5.30808V21.75H6.82465V20.25ZM5.30808 18.75C4.47047 18.75 3.7915 19.4216 3.7915 20.25V21.75C3.7915 22.5784 4.47047 23.25 5.30808 23.25H6.82465C7.66226 23.25 8.34123 22.5784 8.34123 21.75V20.25C8.34123 19.4216 7.66226 18.75 6.82465 18.75H5.30808Z" fill="#333333"/>
<path fill-rule="evenodd" clip-rule="evenodd" d="M12.8908 20.25H11.3742V21.75H12.8908V20.25ZM11.3742 18.75C10.5366 18.75 9.85767 19.4216 9.85767 20.25V21.75C9.85767 22.5784 10.5366 23.25 11.3742 23.25H12.8908C13.7284 23.25 14.4074 22.5784 14.4074 21.75V20.25C14.4074 19.4216 13.7284 18.75 12.8908 18.75H11.3742Z" fill="#333333"/>
<path fill-rule="evenodd" clip-rule="evenodd" d="M3.03315 4.5H21.232C22.0696 4.5 22.7486 5.17155 22.7486 6V18C23.2723 18 23.7805 18.0656 24.2652 18.189V6C24.2652 4.34314 22.9072 3 21.232 3H3.03315C1.35799 3 0 4.34314 0 6V24C0 25.6568 1.35799 27 3.03315 27H17.4939C17.2224 26.5357 17.0119 26.0321 16.8734 25.5H3.03315C2.19557 25.5 1.51657 24.8284 1.51657 24V6C1.51657 5.17155 2.19557 4.5 3.03315 4.5Z" fill="#333333"/>
<path fill-rule="evenodd" clip-rule="evenodd" d="M23.5069 11.25H0.758301V9.75H23.5069V11.25Z" fill="#333333"/>
<path fill-rule="evenodd" clip-rule="evenodd" d="M22.7487 28.5C25.2614 28.5 27.2984 26.4853 27.2984 24C27.2984 21.5147 25.2614 19.5 22.7487 19.5C20.2359 19.5 18.1989 21.5147 18.1989 24C18.1989 26.4853 20.2359 28.5 22.7487 28.5ZM22.7487 30C26.099 30 28.815 27.3137 28.815 24C28.815 20.6863 26.099 18 22.7487 18C19.3983 18 16.6824 20.6863 16.6824 24C16.6824 27.3137 19.3983 30 22.7487 30Z" fill="#333333"/>
<path fill-rule="evenodd" clip-rule="evenodd" d="M22.7485 20.384C23.1673 20.384 23.5068 20.7198 23.5068 21.134V24.3576L25.3657 25.6339C25.7098 25.8701 25.7951 26.3374 25.5562 26.6777C25.3174 27.0179 24.845 27.1023 24.5009 26.8661L21.9902 25.1424V21.134C21.9902 20.7198 22.3297 20.384 22.7485 20.384Z" fill="#333333"/>
</svg>
