<svg width="426" height="150" viewBox="0 0 426 150" fill="none" xmlns="http://www.w3.org/2000/svg">
<g filter="url(#filter0_iii_1066_306)">
<path d="M89.3251 55.7935V42.7935C89.3251 42.7935 52.3251 42.7935 52.8251 71.5435C53.3251 100.293 89.3251 100.293 89.3251 100.293V88.2935" stroke="url(#paint0_linear_1066_306)" stroke-width="8"/>
<path d="M33.6439 23V71.5H51.1439" stroke="url(#paint1_linear_1066_306)" stroke-width="8"/>
<path d="M69.99 25.9373H31.99" stroke="#996C32" stroke-width="8"/>
<path d="M69.0007 26.0737C69.0007 26.0737 125.969 21.2797 126.313 70.6104C126.657 119.941 69.6349 116.92 69.6349 116.92" stroke="url(#paint2_linear_1066_306)" stroke-width="8"/>
<path d="M76.1478 116.964L34 116.575" stroke="#996C32" stroke-width="8"/>
<circle cx="89.2095" cy="56.1619" r="4.5" fill="#D9D9D9"/>
<circle cx="89.2095" cy="56.1619" r="4" stroke="black" stroke-opacity="0.42"/>
<circle cx="89.4333" cy="87.1611" r="4.5" fill="#D9D9D9"/>
<circle cx="89.4333" cy="87.1611" r="4" stroke="black" stroke-opacity="0.4"/>
<circle cx="34" cy="116.575" r="11" fill="#A3A0A0"/>
<circle cx="34" cy="116.575" r="10.5" stroke="black" stroke-opacity="0.15"/>
<circle cx="33.5" cy="117.075" r="4.5" fill="#D9D9D9"/>
</g>
<path d="M152.297 87V86.187H153.286C154.15 86.187 154.809 86.0552 155.263 85.7915C155.732 85.5132 156.076 85.1396 156.296 84.6709C156.428 84.3633 156.494 83.4404 156.494 81.9023V62.3027C156.494 60.7793 156.413 59.8271 156.252 59.4463C156.091 59.0654 155.761 58.7358 155.263 58.4575C154.78 58.1646 154.121 58.0181 153.286 58.0181H152.297V57.2051H165.634C169.194 57.2051 172.058 57.6885 174.226 58.6553C176.877 59.8418 178.884 61.6362 180.246 64.0386C181.623 66.4409 182.312 69.1582 182.312 72.1904C182.312 74.2852 181.975 76.2188 181.301 77.9912C180.627 79.749 179.755 81.2065 178.686 82.3638C177.617 83.5063 176.379 84.4292 174.973 85.1323C173.581 85.8208 171.875 86.3555 169.853 86.7363C168.959 86.9121 167.553 87 165.634 87H152.297ZM163.657 58.897V82.144C163.657 83.3745 163.715 84.1289 163.833 84.4072C163.95 84.6855 164.147 84.8979 164.426 85.0444C164.821 85.2642 165.393 85.374 166.14 85.374C168.586 85.374 170.454 84.5391 171.743 82.8691C173.5 80.6133 174.379 77.1123 174.379 72.3662C174.379 68.543 173.779 65.4888 172.578 63.2036C171.625 61.4165 170.402 60.2007 168.908 59.5562C167.854 59.1021 166.103 58.8823 163.657 58.897ZM195.429 65.8403C197.216 65.8403 198.879 66.3018 200.417 67.2246C201.955 68.1475 203.12 69.4585 203.911 71.1577C204.716 72.8569 205.119 74.7173 205.119 76.7388C205.119 79.6538 204.379 82.0928 202.9 84.0557C201.113 86.4287 198.645 87.6152 195.495 87.6152C192.404 87.6152 190.024 86.5312 188.354 84.3633C186.684 82.1953 185.849 79.6831 185.849 76.8267C185.849 73.8823 186.699 71.3188 188.398 69.1362C190.112 66.939 192.456 65.8403 195.429 65.8403ZM195.517 67.4004C194.77 67.4004 194.125 67.686 193.583 68.2573C193.056 68.814 192.705 69.9272 192.529 71.5972C192.368 73.2524 192.287 75.5596 192.287 78.5186C192.287 80.0859 192.39 81.5508 192.595 82.9131C192.756 83.9531 193.1 84.7441 193.627 85.2861C194.155 85.8281 194.755 86.0991 195.429 86.0991C196.088 86.0991 196.638 85.916 197.077 85.5498C197.648 85.0518 198.029 84.356 198.22 83.4624C198.513 82.0708 198.659 79.2583 198.659 75.0249C198.659 72.5347 198.52 70.8281 198.242 69.9053C197.963 68.9678 197.553 68.2866 197.011 67.8618C196.63 67.5542 196.132 67.4004 195.517 67.4004ZM225.004 81.7046L225.686 82.2319C224.719 84.0483 223.51 85.4033 222.06 86.2969C220.625 87.1758 219.094 87.6152 217.468 87.6152C214.729 87.6152 212.539 86.5825 210.898 84.5171C209.257 82.4517 208.437 79.9688 208.437 77.0684C208.437 74.2705 209.184 71.8096 210.678 69.6855C212.48 67.1221 214.963 65.8403 218.127 65.8403C220.251 65.8403 221.936 66.375 223.181 67.4443C224.44 68.5137 225.07 69.7075 225.07 71.0259C225.07 71.8608 224.814 72.5273 224.301 73.0254C223.803 73.5234 223.144 73.7725 222.324 73.7725C221.459 73.7725 220.742 73.4868 220.17 72.9155C219.614 72.3442 219.27 71.3262 219.138 69.8613C219.05 68.9385 218.837 68.2939 218.5 67.9277C218.164 67.5615 217.768 67.3784 217.314 67.3784C216.611 67.3784 216.01 67.752 215.512 68.499C214.75 69.627 214.37 71.3555 214.37 73.6846C214.37 75.6182 214.677 77.4712 215.292 79.2437C215.908 81.0015 216.75 82.3125 217.819 83.1768C218.625 83.8066 219.577 84.1216 220.676 84.1216C221.394 84.1216 222.075 83.9531 222.719 83.6162C223.364 83.2793 224.125 82.6421 225.004 81.7046ZM236.386 58.9409V66.4556H241.264V68.6309H236.386V81.3091C236.386 82.4956 236.438 83.2646 236.54 83.6162C236.657 83.9531 236.855 84.2314 237.133 84.4512C237.412 84.6562 237.668 84.7588 237.902 84.7588C238.854 84.7588 239.755 84.0337 240.605 82.5835L241.264 83.0669C240.078 85.8794 238.151 87.2856 235.485 87.2856C234.182 87.2856 233.076 86.9268 232.167 86.209C231.274 85.4766 230.703 84.6636 230.454 83.77C230.307 83.272 230.234 81.9243 230.234 79.7271V68.6309H227.553V67.8618C229.399 66.5581 230.966 65.1885 232.255 63.7529C233.559 62.3174 234.694 60.7134 235.661 58.9409H236.386ZM252.91 65.8403C254.697 65.8403 256.359 66.3018 257.897 67.2246C259.436 68.1475 260.6 69.4585 261.391 71.1577C262.197 72.8569 262.6 74.7173 262.6 76.7388C262.6 79.6538 261.86 82.0928 260.38 84.0557C258.593 86.4287 256.125 87.6152 252.976 87.6152C249.885 87.6152 247.504 86.5312 245.834 84.3633C244.165 82.1953 243.33 79.6831 243.33 76.8267C243.33 73.8823 244.179 71.3188 245.878 69.1362C247.592 66.939 249.936 65.8403 252.91 65.8403ZM252.998 67.4004C252.25 67.4004 251.606 67.686 251.064 68.2573C250.537 68.814 250.185 69.9272 250.009 71.5972C249.848 73.2524 249.768 75.5596 249.768 78.5186C249.768 80.0859 249.87 81.5508 250.075 82.9131C250.236 83.9531 250.581 84.7441 251.108 85.2861C251.635 85.8281 252.236 86.0991 252.91 86.0991C253.569 86.0991 254.118 85.916 254.558 85.5498C255.129 85.0518 255.51 84.356 255.7 83.4624C255.993 82.0708 256.14 79.2583 256.14 75.0249C256.14 72.5347 256 70.8281 255.722 69.9053C255.444 68.9678 255.034 68.2866 254.492 67.8618C254.111 67.5542 253.613 67.4004 252.998 67.4004ZM294.24 56.5239V66.8511H293.383C292.739 64.1558 291.538 62.0903 289.78 60.6548C288.022 59.2192 286.03 58.5015 283.803 58.5015C281.943 58.5015 280.236 59.0361 278.684 60.1055C277.131 61.1748 275.996 62.5737 275.278 64.3022C274.355 66.5142 273.894 68.9751 273.894 71.6851C273.894 74.3511 274.23 76.7827 274.904 78.98C275.578 81.1626 276.633 82.8179 278.068 83.9458C279.504 85.0591 281.364 85.6157 283.649 85.6157C285.524 85.6157 287.238 85.2056 288.791 84.3853C290.358 83.5649 292.006 82.1514 293.735 80.1445V82.7153C292.065 84.4585 290.322 85.7256 288.505 86.5166C286.704 87.293 284.594 87.6812 282.177 87.6812C278.999 87.6812 276.171 87.0439 273.696 85.7695C271.235 84.4951 269.331 82.6641 267.983 80.2764C266.65 77.8887 265.983 75.3472 265.983 72.6519C265.983 69.8101 266.723 67.1147 268.203 64.5659C269.697 62.0171 271.704 60.0396 274.223 58.6333C276.757 57.2271 279.445 56.5239 282.287 56.5239C284.382 56.5239 286.594 56.978 288.923 57.8862C290.271 58.4136 291.127 58.6772 291.494 58.6772C291.962 58.6772 292.365 58.5088 292.702 58.1719C293.054 57.8203 293.281 57.271 293.383 56.5239H294.24ZM307.929 65.8403C309.716 65.8403 311.379 66.3018 312.917 67.2246C314.455 68.1475 315.62 69.4585 316.411 71.1577C317.216 72.8569 317.619 74.7173 317.619 76.7388C317.619 79.6538 316.879 82.0928 315.4 84.0557C313.613 86.4287 311.145 87.6152 307.995 87.6152C304.904 87.6152 302.524 86.5312 300.854 84.3633C299.184 82.1953 298.349 79.6831 298.349 76.8267C298.349 73.8823 299.199 71.3188 300.898 69.1362C302.612 66.939 304.956 65.8403 307.929 65.8403ZM308.017 67.4004C307.27 67.4004 306.625 67.686 306.083 68.2573C305.556 68.814 305.205 69.9272 305.029 71.5972C304.868 73.2524 304.787 75.5596 304.787 78.5186C304.787 80.0859 304.89 81.5508 305.095 82.9131C305.256 83.9531 305.6 84.7441 306.127 85.2861C306.655 85.8281 307.255 86.0991 307.929 86.0991C308.588 86.0991 309.138 85.916 309.577 85.5498C310.148 85.0518 310.529 84.356 310.72 83.4624C311.013 82.0708 311.159 79.2583 311.159 75.0249C311.159 72.5347 311.02 70.8281 310.742 69.9053C310.463 68.9678 310.053 68.2866 309.511 67.8618C309.13 67.5542 308.632 67.4004 308.017 67.4004ZM329.133 66.4556V69.1143C330.188 67.9717 331.198 67.144 332.165 66.6313C333.132 66.104 334.172 65.8403 335.285 65.8403C336.618 65.8403 337.724 66.2139 338.603 66.9609C339.482 67.6934 340.068 68.6089 340.361 69.7075C340.595 70.5425 340.712 72.1465 340.712 74.5195V82.5176C340.712 84.0996 340.852 85.0884 341.13 85.4839C341.423 85.8647 342.023 86.1064 342.932 86.209V87H332.539V86.209C333.315 86.1064 333.872 85.7842 334.208 85.2422C334.443 84.876 334.56 83.9678 334.56 82.5176V73.377C334.56 71.6924 334.494 70.6304 334.362 70.1909C334.23 69.7515 334.003 69.4146 333.681 69.1802C333.374 68.9312 333.029 68.8066 332.648 68.8066C331.389 68.8066 330.217 69.7075 329.133 71.5093V82.5176C329.133 84.0557 329.272 85.0298 329.55 85.4399C329.843 85.8501 330.378 86.1064 331.154 86.209V87H320.761V86.209C321.625 86.1211 322.241 85.8428 322.607 85.374C322.856 85.0518 322.98 84.0996 322.98 82.5176V70.916C322.98 69.3633 322.834 68.3965 322.541 68.0156C322.263 67.6348 321.669 67.3857 320.761 67.2686V66.4556H329.133ZM354.182 66.4556V69.1143C355.236 67.9717 356.247 67.144 357.214 66.6313C358.181 66.104 359.221 65.8403 360.334 65.8403C361.667 65.8403 362.773 66.2139 363.652 66.9609C364.531 67.6934 365.117 68.6089 365.41 69.7075C365.644 70.5425 365.761 72.1465 365.761 74.5195V82.5176C365.761 84.0996 365.9 85.0884 366.179 85.4839C366.472 85.8647 367.072 86.1064 367.98 86.209V87H357.587V86.209C358.364 86.1064 358.92 85.7842 359.257 85.2422C359.492 84.876 359.609 83.9678 359.609 82.5176V73.377C359.609 71.6924 359.543 70.6304 359.411 70.1909C359.279 69.7515 359.052 69.4146 358.73 69.1802C358.422 68.9312 358.078 68.8066 357.697 68.8066C356.438 68.8066 355.266 69.7075 354.182 71.5093V82.5176C354.182 84.0557 354.321 85.0298 354.599 85.4399C354.892 85.8501 355.427 86.1064 356.203 86.209V87H345.81V86.209C346.674 86.1211 347.29 85.8428 347.656 85.374C347.905 85.0518 348.029 84.0996 348.029 82.5176V70.916C348.029 69.3633 347.883 68.3965 347.59 68.0156C347.312 67.6348 346.718 67.3857 345.81 67.2686V66.4556H354.182ZM388.239 75.9917H376.967C377.099 78.7163 377.824 80.8696 379.143 82.4517C380.153 83.6675 381.369 84.2754 382.79 84.2754C383.669 84.2754 384.467 84.0337 385.185 83.5503C385.903 83.0522 386.672 82.166 387.492 80.8916L388.239 81.375C387.126 83.6455 385.896 85.2568 384.548 86.209C383.2 87.1465 381.64 87.6152 379.868 87.6152C376.821 87.6152 374.514 86.4434 372.946 84.0996C371.687 82.21 371.057 79.8662 371.057 77.0684C371.057 73.6406 371.979 70.916 373.825 68.8945C375.686 66.8584 377.861 65.8403 380.351 65.8403C382.431 65.8403 384.233 66.6973 385.756 68.4111C387.294 70.1104 388.122 72.6372 388.239 75.9917ZM382.834 74.5195C382.834 72.1611 382.702 70.5425 382.438 69.6636C382.189 68.7847 381.794 68.1182 381.252 67.6641C380.944 67.4004 380.534 67.2686 380.021 67.2686C379.26 67.2686 378.637 67.6421 378.154 68.3892C377.29 69.6929 376.857 71.48 376.857 73.7505V74.5195H382.834ZM407.597 81.7046L408.278 82.2319C407.312 84.0483 406.103 85.4033 404.653 86.2969C403.217 87.1758 401.687 87.6152 400.061 87.6152C397.321 87.6152 395.131 86.5825 393.491 84.5171C391.85 82.4517 391.03 79.9688 391.03 77.0684C391.03 74.2705 391.777 71.8096 393.271 69.6855C395.073 67.1221 397.556 65.8403 400.72 65.8403C402.844 65.8403 404.528 66.375 405.773 67.4443C407.033 68.5137 407.663 69.7075 407.663 71.0259C407.663 71.8608 407.407 72.5273 406.894 73.0254C406.396 73.5234 405.737 73.7725 404.917 73.7725C404.052 73.7725 403.334 73.4868 402.763 72.9155C402.207 72.3442 401.862 71.3262 401.73 69.8613C401.643 68.9385 401.43 68.2939 401.093 67.9277C400.756 67.5615 400.361 67.3784 399.907 67.3784C399.204 67.3784 398.603 67.752 398.105 68.499C397.343 69.627 396.962 71.3555 396.962 73.6846C396.962 75.6182 397.27 77.4712 397.885 79.2437C398.5 81.0015 399.343 82.3125 400.412 83.1768C401.218 83.8066 402.17 84.1216 403.269 84.1216C403.986 84.1216 404.667 83.9531 405.312 83.6162C405.957 83.2793 406.718 82.6421 407.597 81.7046ZM418.979 58.9409V66.4556H423.857V68.6309H418.979V81.3091C418.979 82.4956 419.03 83.2646 419.133 83.6162C419.25 83.9531 419.448 84.2314 419.726 84.4512C420.004 84.6562 420.261 84.7588 420.495 84.7588C421.447 84.7588 422.348 84.0337 423.198 82.5835L423.857 83.0669C422.67 85.8794 420.744 87.2856 418.078 87.2856C416.774 87.2856 415.668 86.9268 414.76 86.209C413.867 85.4766 413.295 84.6636 413.046 83.77C412.9 83.272 412.827 81.9243 412.827 79.7271V68.6309H410.146V67.8618C411.992 66.5581 413.559 65.1885 414.848 63.7529C416.152 62.3174 417.287 60.7134 418.254 58.9409H418.979Z" fill="url(#paint3_linear_1066_306)"/>
<path d="M152.297 87V86.187H153.286C154.15 86.187 154.809 86.0552 155.263 85.7915C155.732 85.5132 156.076 85.1396 156.296 84.6709C156.428 84.3633 156.494 83.4404 156.494 81.9023V62.3027C156.494 60.7793 156.413 59.8271 156.252 59.4463C156.091 59.0654 155.761 58.7358 155.263 58.4575C154.78 58.1646 154.121 58.0181 153.286 58.0181H152.297V57.2051H165.634C169.194 57.2051 172.058 57.6885 174.226 58.6553C176.877 59.8418 178.884 61.6362 180.246 64.0386C181.623 66.4409 182.312 69.1582 182.312 72.1904C182.312 74.2852 181.975 76.2188 181.301 77.9912C180.627 79.749 179.755 81.2065 178.686 82.3638C177.617 83.5063 176.379 84.4292 174.973 85.1323C173.581 85.8208 171.875 86.3555 169.853 86.7363C168.959 86.9121 167.553 87 165.634 87H152.297ZM163.657 58.897V82.144C163.657 83.3745 163.715 84.1289 163.833 84.4072C163.95 84.6855 164.147 84.8979 164.426 85.0444C164.821 85.2642 165.393 85.374 166.14 85.374C168.586 85.374 170.454 84.5391 171.743 82.8691C173.5 80.6133 174.379 77.1123 174.379 72.3662C174.379 68.543 173.779 65.4888 172.578 63.2036C171.625 61.4165 170.402 60.2007 168.908 59.5562C167.854 59.1021 166.103 58.8823 163.657 58.897ZM195.429 65.8403C197.216 65.8403 198.879 66.3018 200.417 67.2246C201.955 68.1475 203.12 69.4585 203.911 71.1577C204.716 72.8569 205.119 74.7173 205.119 76.7388C205.119 79.6538 204.379 82.0928 202.9 84.0557C201.113 86.4287 198.645 87.6152 195.495 87.6152C192.404 87.6152 190.024 86.5312 188.354 84.3633C186.684 82.1953 185.849 79.6831 185.849 76.8267C185.849 73.8823 186.699 71.3188 188.398 69.1362C190.112 66.939 192.456 65.8403 195.429 65.8403ZM195.517 67.4004C194.77 67.4004 194.125 67.686 193.583 68.2573C193.056 68.814 192.705 69.9272 192.529 71.5972C192.368 73.2524 192.287 75.5596 192.287 78.5186C192.287 80.0859 192.39 81.5508 192.595 82.9131C192.756 83.9531 193.1 84.7441 193.627 85.2861C194.155 85.8281 194.755 86.0991 195.429 86.0991C196.088 86.0991 196.638 85.916 197.077 85.5498C197.648 85.0518 198.029 84.356 198.22 83.4624C198.513 82.0708 198.659 79.2583 198.659 75.0249C198.659 72.5347 198.52 70.8281 198.242 69.9053C197.963 68.9678 197.553 68.2866 197.011 67.8618C196.63 67.5542 196.132 67.4004 195.517 67.4004ZM225.004 81.7046L225.686 82.2319C224.719 84.0483 223.51 85.4033 222.06 86.2969C220.625 87.1758 219.094 87.6152 217.468 87.6152C214.729 87.6152 212.539 86.5825 210.898 84.5171C209.257 82.4517 208.437 79.9688 208.437 77.0684C208.437 74.2705 209.184 71.8096 210.678 69.6855C212.48 67.1221 214.963 65.8403 218.127 65.8403C220.251 65.8403 221.936 66.375 223.181 67.4443C224.44 68.5137 225.07 69.7075 225.07 71.0259C225.07 71.8608 224.814 72.5273 224.301 73.0254C223.803 73.5234 223.144 73.7725 222.324 73.7725C221.459 73.7725 220.742 73.4868 220.17 72.9155C219.614 72.3442 219.27 71.3262 219.138 69.8613C219.05 68.9385 218.837 68.2939 218.5 67.9277C218.164 67.5615 217.768 67.3784 217.314 67.3784C216.611 67.3784 216.01 67.752 215.512 68.499C214.75 69.627 214.37 71.3555 214.37 73.6846C214.37 75.6182 214.677 77.4712 215.292 79.2437C215.908 81.0015 216.75 82.3125 217.819 83.1768C218.625 83.8066 219.577 84.1216 220.676 84.1216C221.394 84.1216 222.075 83.9531 222.719 83.6162C223.364 83.2793 224.125 82.6421 225.004 81.7046ZM236.386 58.9409V66.4556H241.264V68.6309H236.386V81.3091C236.386 82.4956 236.438 83.2646 236.54 83.6162C236.657 83.9531 236.855 84.2314 237.133 84.4512C237.412 84.6562 237.668 84.7588 237.902 84.7588C238.854 84.7588 239.755 84.0337 240.605 82.5835L241.264 83.0669C240.078 85.8794 238.151 87.2856 235.485 87.2856C234.182 87.2856 233.076 86.9268 232.167 86.209C231.274 85.4766 230.703 84.6636 230.454 83.77C230.307 83.272 230.234 81.9243 230.234 79.7271V68.6309H227.553V67.8618C229.399 66.5581 230.966 65.1885 232.255 63.7529C233.559 62.3174 234.694 60.7134 235.661 58.9409H236.386ZM252.91 65.8403C254.697 65.8403 256.359 66.3018 257.897 67.2246C259.436 68.1475 260.6 69.4585 261.391 71.1577C262.197 72.8569 262.6 74.7173 262.6 76.7388C262.6 79.6538 261.86 82.0928 260.38 84.0557C258.593 86.4287 256.125 87.6152 252.976 87.6152C249.885 87.6152 247.504 86.5312 245.834 84.3633C244.165 82.1953 243.33 79.6831 243.33 76.8267C243.33 73.8823 244.179 71.3188 245.878 69.1362C247.592 66.939 249.936 65.8403 252.91 65.8403ZM252.998 67.4004C252.25 67.4004 251.606 67.686 251.064 68.2573C250.537 68.814 250.185 69.9272 250.009 71.5972C249.848 73.2524 249.768 75.5596 249.768 78.5186C249.768 80.0859 249.87 81.5508 250.075 82.9131C250.236 83.9531 250.581 84.7441 251.108 85.2861C251.635 85.8281 252.236 86.0991 252.91 86.0991C253.569 86.0991 254.118 85.916 254.558 85.5498C255.129 85.0518 255.51 84.356 255.7 83.4624C255.993 82.0708 256.14 79.2583 256.14 75.0249C256.14 72.5347 256 70.8281 255.722 69.9053C255.444 68.9678 255.034 68.2866 254.492 67.8618C254.111 67.5542 253.613 67.4004 252.998 67.4004ZM294.24 56.5239V66.8511H293.383C292.739 64.1558 291.538 62.0903 289.78 60.6548C288.022 59.2192 286.03 58.5015 283.803 58.5015C281.943 58.5015 280.236 59.0361 278.684 60.1055C277.131 61.1748 275.996 62.5737 275.278 64.3022C274.355 66.5142 273.894 68.9751 273.894 71.6851C273.894 74.3511 274.23 76.7827 274.904 78.98C275.578 81.1626 276.633 82.8179 278.068 83.9458C279.504 85.0591 281.364 85.6157 283.649 85.6157C285.524 85.6157 287.238 85.2056 288.791 84.3853C290.358 83.5649 292.006 82.1514 293.735 80.1445V82.7153C292.065 84.4585 290.322 85.7256 288.505 86.5166C286.704 87.293 284.594 87.6812 282.177 87.6812C278.999 87.6812 276.171 87.0439 273.696 85.7695C271.235 84.4951 269.331 82.6641 267.983 80.2764C266.65 77.8887 265.983 75.3472 265.983 72.6519C265.983 69.8101 266.723 67.1147 268.203 64.5659C269.697 62.0171 271.704 60.0396 274.223 58.6333C276.757 57.2271 279.445 56.5239 282.287 56.5239C284.382 56.5239 286.594 56.978 288.923 57.8862C290.271 58.4136 291.127 58.6772 291.494 58.6772C291.962 58.6772 292.365 58.5088 292.702 58.1719C293.054 57.8203 293.281 57.271 293.383 56.5239H294.24ZM307.929 65.8403C309.716 65.8403 311.379 66.3018 312.917 67.2246C314.455 68.1475 315.62 69.4585 316.411 71.1577C317.216 72.8569 317.619 74.7173 317.619 76.7388C317.619 79.6538 316.879 82.0928 315.4 84.0557C313.613 86.4287 311.145 87.6152 307.995 87.6152C304.904 87.6152 302.524 86.5312 300.854 84.3633C299.184 82.1953 298.349 79.6831 298.349 76.8267C298.349 73.8823 299.199 71.3188 300.898 69.1362C302.612 66.939 304.956 65.8403 307.929 65.8403ZM308.017 67.4004C307.27 67.4004 306.625 67.686 306.083 68.2573C305.556 68.814 305.205 69.9272 305.029 71.5972C304.868 73.2524 304.787 75.5596 304.787 78.5186C304.787 80.0859 304.89 81.5508 305.095 82.9131C305.256 83.9531 305.6 84.7441 306.127 85.2861C306.655 85.8281 307.255 86.0991 307.929 86.0991C308.588 86.0991 309.138 85.916 309.577 85.5498C310.148 85.0518 310.529 84.356 310.72 83.4624C311.013 82.0708 311.159 79.2583 311.159 75.0249C311.159 72.5347 311.02 70.8281 310.742 69.9053C310.463 68.9678 310.053 68.2866 309.511 67.8618C309.13 67.5542 308.632 67.4004 308.017 67.4004ZM329.133 66.4556V69.1143C330.188 67.9717 331.198 67.144 332.165 66.6313C333.132 66.104 334.172 65.8403 335.285 65.8403C336.618 65.8403 337.724 66.2139 338.603 66.9609C339.482 67.6934 340.068 68.6089 340.361 69.7075C340.595 70.5425 340.712 72.1465 340.712 74.5195V82.5176C340.712 84.0996 340.852 85.0884 341.13 85.4839C341.423 85.8647 342.023 86.1064 342.932 86.209V87H332.539V86.209C333.315 86.1064 333.872 85.7842 334.208 85.2422C334.443 84.876 334.56 83.9678 334.56 82.5176V73.377C334.56 71.6924 334.494 70.6304 334.362 70.1909C334.23 69.7515 334.003 69.4146 333.681 69.1802C333.374 68.9312 333.029 68.8066 332.648 68.8066C331.389 68.8066 330.217 69.7075 329.133 71.5093V82.5176C329.133 84.0557 329.272 85.0298 329.55 85.4399C329.843 85.8501 330.378 86.1064 331.154 86.209V87H320.761V86.209C321.625 86.1211 322.241 85.8428 322.607 85.374C322.856 85.0518 322.98 84.0996 322.98 82.5176V70.916C322.98 69.3633 322.834 68.3965 322.541 68.0156C322.263 67.6348 321.669 67.3857 320.761 67.2686V66.4556H329.133ZM354.182 66.4556V69.1143C355.236 67.9717 356.247 67.144 357.214 66.6313C358.181 66.104 359.221 65.8403 360.334 65.8403C361.667 65.8403 362.773 66.2139 363.652 66.9609C364.531 67.6934 365.117 68.6089 365.41 69.7075C365.644 70.5425 365.761 72.1465 365.761 74.5195V82.5176C365.761 84.0996 365.9 85.0884 366.179 85.4839C366.472 85.8647 367.072 86.1064 367.98 86.209V87H357.587V86.209C358.364 86.1064 358.92 85.7842 359.257 85.2422C359.492 84.876 359.609 83.9678 359.609 82.5176V73.377C359.609 71.6924 359.543 70.6304 359.411 70.1909C359.279 69.7515 359.052 69.4146 358.73 69.1802C358.422 68.9312 358.078 68.8066 357.697 68.8066C356.438 68.8066 355.266 69.7075 354.182 71.5093V82.5176C354.182 84.0557 354.321 85.0298 354.599 85.4399C354.892 85.8501 355.427 86.1064 356.203 86.209V87H345.81V86.209C346.674 86.1211 347.29 85.8428 347.656 85.374C347.905 85.0518 348.029 84.0996 348.029 82.5176V70.916C348.029 69.3633 347.883 68.3965 347.59 68.0156C347.312 67.6348 346.718 67.3857 345.81 67.2686V66.4556H354.182ZM388.239 75.9917H376.967C377.099 78.7163 377.824 80.8696 379.143 82.4517C380.153 83.6675 381.369 84.2754 382.79 84.2754C383.669 84.2754 384.467 84.0337 385.185 83.5503C385.903 83.0522 386.672 82.166 387.492 80.8916L388.239 81.375C387.126 83.6455 385.896 85.2568 384.548 86.209C383.2 87.1465 381.64 87.6152 379.868 87.6152C376.821 87.6152 374.514 86.4434 372.946 84.0996C371.687 82.21 371.057 79.8662 371.057 77.0684C371.057 73.6406 371.979 70.916 373.825 68.8945C375.686 66.8584 377.861 65.8403 380.351 65.8403C382.431 65.8403 384.233 66.6973 385.756 68.4111C387.294 70.1104 388.122 72.6372 388.239 75.9917ZM382.834 74.5195C382.834 72.1611 382.702 70.5425 382.438 69.6636C382.189 68.7847 381.794 68.1182 381.252 67.6641C380.944 67.4004 380.534 67.2686 380.021 67.2686C379.26 67.2686 378.637 67.6421 378.154 68.3892C377.29 69.6929 376.857 71.48 376.857 73.7505V74.5195H382.834ZM407.597 81.7046L408.278 82.2319C407.312 84.0483 406.103 85.4033 404.653 86.2969C403.217 87.1758 401.687 87.6152 400.061 87.6152C397.321 87.6152 395.131 86.5825 393.491 84.5171C391.85 82.4517 391.03 79.9688 391.03 77.0684C391.03 74.2705 391.777 71.8096 393.271 69.6855C395.073 67.1221 397.556 65.8403 400.72 65.8403C402.844 65.8403 404.528 66.375 405.773 67.4443C407.033 68.5137 407.663 69.7075 407.663 71.0259C407.663 71.8608 407.407 72.5273 406.894 73.0254C406.396 73.5234 405.737 73.7725 404.917 73.7725C404.052 73.7725 403.334 73.4868 402.763 72.9155C402.207 72.3442 401.862 71.3262 401.73 69.8613C401.643 68.9385 401.43 68.2939 401.093 67.9277C400.756 67.5615 400.361 67.3784 399.907 67.3784C399.204 67.3784 398.603 67.752 398.105 68.499C397.343 69.627 396.962 71.3555 396.962 73.6846C396.962 75.6182 397.27 77.4712 397.885 79.2437C398.5 81.0015 399.343 82.3125 400.412 83.1768C401.218 83.8066 402.17 84.1216 403.269 84.1216C403.986 84.1216 404.667 83.9531 405.312 83.6162C405.957 83.2793 406.718 82.6421 407.597 81.7046ZM418.979 58.9409V66.4556H423.857V68.6309H418.979V81.3091C418.979 82.4956 419.03 83.2646 419.133 83.6162C419.25 83.9531 419.448 84.2314 419.726 84.4512C420.004 84.6562 420.261 84.7588 420.495 84.7588C421.447 84.7588 422.348 84.0337 423.198 82.5835L423.857 83.0669C422.67 85.8794 420.744 87.2856 418.078 87.2856C416.774 87.2856 415.668 86.9268 414.76 86.209C413.867 85.4766 413.295 84.6636 413.046 83.77C412.9 83.272 412.827 81.9243 412.827 79.7271V68.6309H410.146V67.8618C411.992 66.5581 413.559 65.1885 414.848 63.7529C416.152 62.3174 417.287 60.7134 418.254 58.9409H418.979Z" fill="url(#paint4_linear_1066_306)"/>
<defs>
<filter id="filter0_iii_1066_306" x="0" y="0" width="150" height="154" filterUnits="userSpaceOnUse" color-interpolation-filters="sRGB">
<feFlood flood-opacity="0" result="BackgroundImageFix"/>
<feBlend mode="normal" in="SourceGraphic" in2="BackgroundImageFix" result="shape"/>
<feColorMatrix in="SourceAlpha" type="matrix" values="0 0 0 0 0 0 0 0 0 0 0 0 0 0 0 0 0 0 127 0" result="hardAlpha"/>
<feOffset dy="4"/>
<feGaussianBlur stdDeviation="2"/>
<feComposite in2="hardAlpha" operator="arithmetic" k2="-1" k3="1"/>
<feColorMatrix type="matrix" values="0 0 0 0 0 0 0 0 0 0 0 0 0 0 0 0 0 0 0.25 0"/>
<feBlend mode="normal" in2="shape" result="effect1_innerShadow_1066_306"/>
<feColorMatrix in="SourceAlpha" type="matrix" values="0 0 0 0 0 0 0 0 0 0 0 0 0 0 0 0 0 0 127 0" result="hardAlpha"/>
<feOffset dy="4"/>
<feGaussianBlur stdDeviation="2"/>
<feComposite in2="hardAlpha" operator="arithmetic" k2="-1" k3="1"/>
<feColorMatrix type="matrix" values="0 0 0 0 0 0 0 0 0 0 0 0 0 0 0 0 0 0 0.25 0"/>
<feBlend mode="normal" in2="effect1_innerShadow_1066_306" result="effect2_innerShadow_1066_306"/>
<feColorMatrix in="SourceAlpha" type="matrix" values="0 0 0 0 0 0 0 0 0 0 0 0 0 0 0 0 0 0 127 0" result="hardAlpha"/>
<feOffset dy="4"/>
<feGaussianBlur stdDeviation="2"/>
<feComposite in2="hardAlpha" operator="arithmetic" k2="-1" k3="1"/>
<feColorMatrix type="matrix" values="0 0 0 0 0 0 0 0 0 0 0 0 0 0 0 0 0 0 0.25 0"/>
<feBlend mode="normal" in2="effect2_innerShadow_1066_306" result="effect3_innerShadow_1066_306"/>
</filter>
<linearGradient id="paint0_linear_1066_306" x1="5" y1="72" x2="127.5" y2="72" gradientUnits="userSpaceOnUse">
<stop stop-color="#FAEF9E"/>
<stop offset="1" stop-color="#996C32"/>
</linearGradient>
<linearGradient id="paint1_linear_1066_306" x1="-13.5" y1="55.5" x2="73" y2="56.5" gradientUnits="userSpaceOnUse">
<stop stop-color="#996C32"/>
<stop offset="0.801053" stop-color="#996C32" stop-opacity="0.93"/>
<stop offset="1" stop-color="#906029" stop-opacity="0.13"/>
<stop offset="1" stop-color="#94662D"/>
</linearGradient>
<linearGradient id="paint2_linear_1066_306" x1="19" y1="71" x2="177.5" y2="71" gradientUnits="userSpaceOnUse">
<stop stop-color="#996C32"/>
<stop offset="1" stop-color="#996C32"/>
</linearGradient>
<linearGradient id="paint3_linear_1066_306" x1="142" y1="75.5" x2="444" y2="70.5" gradientUnits="userSpaceOnUse">
<stop stop-color="#906029"/>
<stop offset="0.472816" stop-color="#FAEF9E"/>
<stop offset="0.741212" stop-color="#94662D"/>
<stop offset="1" stop-color="#996C32"/>
</linearGradient>
<linearGradient id="paint4_linear_1066_306" x1="142" y1="75.5" x2="444" y2="70.5" gradientUnits="userSpaceOnUse">
<stop stop-color="#906029"/>
<stop offset="0.472816" stop-color="#FAEF9E"/>
<stop offset="0.741212" stop-color="#94662D"/>
<stop offset="1" stop-color="#996C32"/>
</linearGradient>
</defs>
</svg>
