<svg width="416" height="150" viewBox="0 0 416 150" fill="none" xmlns="http://www.w3.org/2000/svg">
<g filter="url(#filter0_iii_1059_305)">
<path d="M89.3251 55.7935V42.7935C89.3251 42.7935 52.3251 42.7935 52.8251 71.5435C53.3251 100.293 89.3251 100.293 89.3251 100.293V88.2935" stroke="#03647C" stroke-opacity="0.78" stroke-width="8"/>
<path d="M33.6439 23V71.5H51.1439" stroke="#03647C" stroke-opacity="0.78" stroke-width="8"/>
<path d="M69.99 25.9373H31.99" stroke="#03647C" stroke-opacity="0.78" stroke-width="8"/>
<path d="M69.0007 26.0737C69.0007 26.0737 125.969 21.2797 126.313 70.6104C126.657 119.941 69.6349 116.92 69.6349 116.92" stroke="#03647C" stroke-opacity="0.78" stroke-width="8"/>
<path d="M76.1478 116.964L34 116.575" stroke="#03647C" stroke-opacity="0.78" stroke-width="8"/>
<circle cx="89.2095" cy="56.1619" r="4.5" fill="#D9D9D9"/>
<circle cx="89.2095" cy="56.1619" r="4" stroke="black" stroke-opacity="0.42"/>
<circle cx="89.4333" cy="87.1611" r="4.5" fill="#D9D9D9"/>
<circle cx="89.4333" cy="87.1611" r="4" stroke="black" stroke-opacity="0.4"/>
<circle cx="34" cy="116.575" r="11" fill="#A3A0A0"/>
<circle cx="34" cy="116.575" r="10.5" stroke="black" stroke-opacity="0.15"/>
<circle cx="33.5" cy="117.075" r="4.5" fill="#D9D9D9"/>
</g>
<path d="M142.297 89V88.187H143.286C144.15 88.187 144.809 88.0552 145.263 87.7915C145.732 87.5132 146.076 87.1396 146.296 86.6709C146.428 86.3633 146.494 85.4404 146.494 83.9023V64.3027C146.494 62.7793 146.413 61.8271 146.252 61.4463C146.091 61.0654 145.761 60.7358 145.263 60.4575C144.78 60.1646 144.121 60.0181 143.286 60.0181H142.297V59.2051H155.634C159.194 59.2051 162.058 59.6885 164.226 60.6553C166.877 61.8418 168.884 63.6362 170.246 66.0386C171.623 68.4409 172.312 71.1582 172.312 74.1904C172.312 76.2852 171.975 78.2188 171.301 79.9912C170.627 81.749 169.755 83.2065 168.686 84.3638C167.617 85.5063 166.379 86.4292 164.973 87.1323C163.581 87.8208 161.875 88.3555 159.853 88.7363C158.959 88.9121 157.553 89 155.634 89H142.297ZM153.657 60.897V84.144C153.657 85.3745 153.715 86.1289 153.833 86.4072C153.95 86.6855 154.147 86.8979 154.426 87.0444C154.821 87.2642 155.393 87.374 156.14 87.374C158.586 87.374 160.454 86.5391 161.743 84.8691C163.5 82.6133 164.379 79.1123 164.379 74.3662C164.379 70.543 163.779 67.4888 162.578 65.2036C161.625 63.4165 160.402 62.2007 158.908 61.5562C157.854 61.1021 156.103 60.8823 153.657 60.897ZM185.429 67.8403C187.216 67.8403 188.879 68.3018 190.417 69.2246C191.955 70.1475 193.12 71.4585 193.911 73.1577C194.716 74.8569 195.119 76.7173 195.119 78.7388C195.119 81.6538 194.379 84.0928 192.9 86.0557C191.113 88.4287 188.645 89.6152 185.495 89.6152C182.404 89.6152 180.024 88.5312 178.354 86.3633C176.684 84.1953 175.849 81.6831 175.849 78.8267C175.849 75.8823 176.699 73.3188 178.398 71.1362C180.112 68.939 182.456 67.8403 185.429 67.8403ZM185.517 69.4004C184.77 69.4004 184.125 69.686 183.583 70.2573C183.056 70.814 182.705 71.9272 182.529 73.5972C182.368 75.2524 182.287 77.5596 182.287 80.5186C182.287 82.0859 182.39 83.5508 182.595 84.9131C182.756 85.9531 183.1 86.7441 183.627 87.2861C184.155 87.8281 184.755 88.0991 185.429 88.0991C186.088 88.0991 186.638 87.916 187.077 87.5498C187.648 87.0518 188.029 86.356 188.22 85.4624C188.513 84.0708 188.659 81.2583 188.659 77.0249C188.659 74.5347 188.52 72.8281 188.242 71.9053C187.963 70.9678 187.553 70.2866 187.011 69.8618C186.63 69.5542 186.132 69.4004 185.517 69.4004ZM215.004 83.7046L215.686 84.2319C214.719 86.0483 213.51 87.4033 212.06 88.2969C210.625 89.1758 209.094 89.6152 207.468 89.6152C204.729 89.6152 202.539 88.5825 200.898 86.5171C199.257 84.4517 198.437 81.9688 198.437 79.0684C198.437 76.2705 199.184 73.8096 200.678 71.6855C202.48 69.1221 204.963 67.8403 208.127 67.8403C210.251 67.8403 211.936 68.375 213.181 69.4443C214.44 70.5137 215.07 71.7075 215.07 73.0259C215.07 73.8608 214.814 74.5273 214.301 75.0254C213.803 75.5234 213.144 75.7725 212.324 75.7725C211.459 75.7725 210.742 75.4868 210.17 74.9155C209.614 74.3442 209.27 73.3262 209.138 71.8613C209.05 70.9385 208.837 70.2939 208.5 69.9277C208.164 69.5615 207.768 69.3784 207.314 69.3784C206.611 69.3784 206.01 69.752 205.512 70.499C204.75 71.627 204.37 73.3555 204.37 75.6846C204.37 77.6182 204.677 79.4712 205.292 81.2437C205.908 83.0015 206.75 84.3125 207.819 85.1768C208.625 85.8066 209.577 86.1216 210.676 86.1216C211.394 86.1216 212.075 85.9531 212.719 85.6162C213.364 85.2793 214.125 84.6421 215.004 83.7046ZM226.386 60.9409V68.4556H231.264V70.6309H226.386V83.3091C226.386 84.4956 226.438 85.2646 226.54 85.6162C226.657 85.9531 226.855 86.2314 227.133 86.4512C227.412 86.6562 227.668 86.7588 227.902 86.7588C228.854 86.7588 229.755 86.0337 230.605 84.5835L231.264 85.0669C230.078 87.8794 228.151 89.2856 225.485 89.2856C224.182 89.2856 223.076 88.9268 222.167 88.209C221.274 87.4766 220.703 86.6636 220.454 85.77C220.307 85.272 220.234 83.9243 220.234 81.7271V70.6309H217.553V69.8618C219.399 68.5581 220.966 67.1885 222.255 65.7529C223.559 64.3174 224.694 62.7134 225.661 60.9409H226.386ZM242.91 67.8403C244.697 67.8403 246.359 68.3018 247.897 69.2246C249.436 70.1475 250.6 71.4585 251.391 73.1577C252.197 74.8569 252.6 76.7173 252.6 78.7388C252.6 81.6538 251.86 84.0928 250.38 86.0557C248.593 88.4287 246.125 89.6152 242.976 89.6152C239.885 89.6152 237.504 88.5312 235.834 86.3633C234.165 84.1953 233.33 81.6831 233.33 78.8267C233.33 75.8823 234.179 73.3188 235.878 71.1362C237.592 68.939 239.936 67.8403 242.91 67.8403ZM242.998 69.4004C242.25 69.4004 241.606 69.686 241.064 70.2573C240.537 70.814 240.185 71.9272 240.009 73.5972C239.848 75.2524 239.768 77.5596 239.768 80.5186C239.768 82.0859 239.87 83.5508 240.075 84.9131C240.236 85.9531 240.581 86.7441 241.108 87.2861C241.635 87.8281 242.236 88.0991 242.91 88.0991C243.569 88.0991 244.118 87.916 244.558 87.5498C245.129 87.0518 245.51 86.356 245.7 85.4624C245.993 84.0708 246.14 81.2583 246.14 77.0249C246.14 74.5347 246 72.8281 245.722 71.9053C245.444 70.9678 245.034 70.2866 244.492 69.8618C244.111 69.5542 243.613 69.4004 242.998 69.4004ZM284.24 58.5239V68.8511H283.383C282.739 66.1558 281.538 64.0903 279.78 62.6548C278.022 61.2192 276.03 60.5015 273.803 60.5015C271.943 60.5015 270.236 61.0361 268.684 62.1055C267.131 63.1748 265.996 64.5737 265.278 66.3022C264.355 68.5142 263.894 70.9751 263.894 73.6851C263.894 76.3511 264.23 78.7827 264.904 80.98C265.578 83.1626 266.633 84.8179 268.068 85.9458C269.504 87.0591 271.364 87.6157 273.649 87.6157C275.524 87.6157 277.238 87.2056 278.791 86.3853C280.358 85.5649 282.006 84.1514 283.735 82.1445V84.7153C282.065 86.4585 280.322 87.7256 278.505 88.5166C276.704 89.293 274.594 89.6812 272.177 89.6812C268.999 89.6812 266.171 89.0439 263.696 87.7695C261.235 86.4951 259.331 84.6641 257.983 82.2764C256.65 79.8887 255.983 77.3472 255.983 74.6519C255.983 71.8101 256.723 69.1147 258.203 66.5659C259.697 64.0171 261.704 62.0396 264.223 60.6333C266.757 59.2271 269.445 58.5239 272.287 58.5239C274.382 58.5239 276.594 58.978 278.923 59.8862C280.271 60.4136 281.127 60.6772 281.494 60.6772C281.962 60.6772 282.365 60.5088 282.702 60.1719C283.054 59.8203 283.281 59.271 283.383 58.5239H284.24ZM297.929 67.8403C299.716 67.8403 301.379 68.3018 302.917 69.2246C304.455 70.1475 305.62 71.4585 306.411 73.1577C307.216 74.8569 307.619 76.7173 307.619 78.7388C307.619 81.6538 306.879 84.0928 305.4 86.0557C303.613 88.4287 301.145 89.6152 297.995 89.6152C294.904 89.6152 292.524 88.5312 290.854 86.3633C289.184 84.1953 288.349 81.6831 288.349 78.8267C288.349 75.8823 289.199 73.3188 290.898 71.1362C292.612 68.939 294.956 67.8403 297.929 67.8403ZM298.017 69.4004C297.27 69.4004 296.625 69.686 296.083 70.2573C295.556 70.814 295.205 71.9272 295.029 73.5972C294.868 75.2524 294.787 77.5596 294.787 80.5186C294.787 82.0859 294.89 83.5508 295.095 84.9131C295.256 85.9531 295.6 86.7441 296.127 87.2861C296.655 87.8281 297.255 88.0991 297.929 88.0991C298.588 88.0991 299.138 87.916 299.577 87.5498C300.148 87.0518 300.529 86.356 300.72 85.4624C301.013 84.0708 301.159 81.2583 301.159 77.0249C301.159 74.5347 301.02 72.8281 300.742 71.9053C300.463 70.9678 300.053 70.2866 299.511 69.8618C299.13 69.5542 298.632 69.4004 298.017 69.4004ZM319.133 68.4556V71.1143C320.188 69.9717 321.198 69.144 322.165 68.6313C323.132 68.104 324.172 67.8403 325.285 67.8403C326.618 67.8403 327.724 68.2139 328.603 68.9609C329.482 69.6934 330.068 70.6089 330.361 71.7075C330.595 72.5425 330.712 74.1465 330.712 76.5195V84.5176C330.712 86.0996 330.852 87.0884 331.13 87.4839C331.423 87.8647 332.023 88.1064 332.932 88.209V89H322.539V88.209C323.315 88.1064 323.872 87.7842 324.208 87.2422C324.443 86.876 324.56 85.9678 324.56 84.5176V75.377C324.56 73.6924 324.494 72.6304 324.362 72.1909C324.23 71.7515 324.003 71.4146 323.681 71.1802C323.374 70.9312 323.029 70.8066 322.648 70.8066C321.389 70.8066 320.217 71.7075 319.133 73.5093V84.5176C319.133 86.0557 319.272 87.0298 319.55 87.4399C319.843 87.8501 320.378 88.1064 321.154 88.209V89H310.761V88.209C311.625 88.1211 312.241 87.8428 312.607 87.374C312.856 87.0518 312.98 86.0996 312.98 84.5176V72.916C312.98 71.3633 312.834 70.3965 312.541 70.0156C312.263 69.6348 311.669 69.3857 310.761 69.2686V68.4556H319.133ZM344.182 68.4556V71.1143C345.236 69.9717 346.247 69.144 347.214 68.6313C348.181 68.104 349.221 67.8403 350.334 67.8403C351.667 67.8403 352.773 68.2139 353.652 68.9609C354.531 69.6934 355.117 70.6089 355.41 71.7075C355.644 72.5425 355.761 74.1465 355.761 76.5195V84.5176C355.761 86.0996 355.9 87.0884 356.179 87.4839C356.472 87.8647 357.072 88.1064 357.98 88.209V89H347.587V88.209C348.364 88.1064 348.92 87.7842 349.257 87.2422C349.492 86.876 349.609 85.9678 349.609 84.5176V75.377C349.609 73.6924 349.543 72.6304 349.411 72.1909C349.279 71.7515 349.052 71.4146 348.73 71.1802C348.422 70.9312 348.078 70.8066 347.697 70.8066C346.438 70.8066 345.266 71.7075 344.182 73.5093V84.5176C344.182 86.0557 344.321 87.0298 344.599 87.4399C344.892 87.8501 345.427 88.1064 346.203 88.209V89H335.81V88.209C336.674 88.1211 337.29 87.8428 337.656 87.374C337.905 87.0518 338.029 86.0996 338.029 84.5176V72.916C338.029 71.3633 337.883 70.3965 337.59 70.0156C337.312 69.6348 336.718 69.3857 335.81 69.2686V68.4556H344.182ZM378.239 77.9917H366.967C367.099 80.7163 367.824 82.8696 369.143 84.4517C370.153 85.6675 371.369 86.2754 372.79 86.2754C373.669 86.2754 374.467 86.0337 375.185 85.5503C375.903 85.0522 376.672 84.166 377.492 82.8916L378.239 83.375C377.126 85.6455 375.896 87.2568 374.548 88.209C373.2 89.1465 371.64 89.6152 369.868 89.6152C366.821 89.6152 364.514 88.4434 362.946 86.0996C361.687 84.21 361.057 81.8662 361.057 79.0684C361.057 75.6406 361.979 72.916 363.825 70.8945C365.686 68.8584 367.861 67.8403 370.351 67.8403C372.431 67.8403 374.233 68.6973 375.756 70.4111C377.294 72.1104 378.122 74.6372 378.239 77.9917ZM372.834 76.5195C372.834 74.1611 372.702 72.5425 372.438 71.6636C372.189 70.7847 371.794 70.1182 371.252 69.6641C370.944 69.4004 370.534 69.2686 370.021 69.2686C369.26 69.2686 368.637 69.6421 368.154 70.3892C367.29 71.6929 366.857 73.48 366.857 75.7505V76.5195H372.834ZM397.597 83.7046L398.278 84.2319C397.312 86.0483 396.103 87.4033 394.653 88.2969C393.217 89.1758 391.687 89.6152 390.061 89.6152C387.321 89.6152 385.131 88.5825 383.491 86.5171C381.85 84.4517 381.03 81.9688 381.03 79.0684C381.03 76.2705 381.777 73.8096 383.271 71.6855C385.073 69.1221 387.556 67.8403 390.72 67.8403C392.844 67.8403 394.528 68.375 395.773 69.4443C397.033 70.5137 397.663 71.7075 397.663 73.0259C397.663 73.8608 397.407 74.5273 396.894 75.0254C396.396 75.5234 395.737 75.7725 394.917 75.7725C394.052 75.7725 393.334 75.4868 392.763 74.9155C392.207 74.3442 391.862 73.3262 391.73 71.8613C391.643 70.9385 391.43 70.2939 391.093 69.9277C390.756 69.5615 390.361 69.3784 389.907 69.3784C389.204 69.3784 388.603 69.752 388.105 70.499C387.343 71.627 386.962 73.3555 386.962 75.6846C386.962 77.6182 387.27 79.4712 387.885 81.2437C388.5 83.0015 389.343 84.3125 390.412 85.1768C391.218 85.8066 392.17 86.1216 393.269 86.1216C393.986 86.1216 394.667 85.9531 395.312 85.6162C395.957 85.2793 396.718 84.6421 397.597 83.7046ZM408.979 60.9409V68.4556H413.857V70.6309H408.979V83.3091C408.979 84.4956 409.03 85.2646 409.133 85.6162C409.25 85.9531 409.448 86.2314 409.726 86.4512C410.004 86.6562 410.261 86.7588 410.495 86.7588C411.447 86.7588 412.348 86.0337 413.198 84.5835L413.857 85.0669C412.67 87.8794 410.744 89.2856 408.078 89.2856C406.774 89.2856 405.668 88.9268 404.76 88.209C403.867 87.4766 403.295 86.6636 403.046 85.77C402.9 85.272 402.827 83.9243 402.827 81.7271V70.6309H400.146V69.8618C401.992 68.5581 403.559 67.1885 404.848 65.7529C406.152 64.3174 407.287 62.7134 408.254 60.9409H408.979Z" fill="#00566B"/>
<defs>
<filter id="filter0_iii_1059_305" x="0" y="0" width="150" height="154" filterUnits="userSpaceOnUse" color-interpolation-filters="sRGB">
<feFlood flood-opacity="0" result="BackgroundImageFix"/>
<feBlend mode="normal" in="SourceGraphic" in2="BackgroundImageFix" result="shape"/>
<feColorMatrix in="SourceAlpha" type="matrix" values="0 0 0 0 0 0 0 0 0 0 0 0 0 0 0 0 0 0 127 0" result="hardAlpha"/>
<feOffset dy="4"/>
<feGaussianBlur stdDeviation="2"/>
<feComposite in2="hardAlpha" operator="arithmetic" k2="-1" k3="1"/>
<feColorMatrix type="matrix" values="0 0 0 0 0 0 0 0 0 0 0 0 0 0 0 0 0 0 0.25 0"/>
<feBlend mode="normal" in2="shape" result="effect1_innerShadow_1059_305"/>
<feColorMatrix in="SourceAlpha" type="matrix" values="0 0 0 0 0 0 0 0 0 0 0 0 0 0 0 0 0 0 127 0" result="hardAlpha"/>
<feOffset dy="4"/>
<feGaussianBlur stdDeviation="2"/>
<feComposite in2="hardAlpha" operator="arithmetic" k2="-1" k3="1"/>
<feColorMatrix type="matrix" values="0 0 0 0 0 0 0 0 0 0 0 0 0 0 0 0 0 0 0.25 0"/>
<feBlend mode="normal" in2="effect1_innerShadow_1059_305" result="effect2_innerShadow_1059_305"/>
<feColorMatrix in="SourceAlpha" type="matrix" values="0 0 0 0 0 0 0 0 0 0 0 0 0 0 0 0 0 0 127 0" result="hardAlpha"/>
<feOffset dy="4"/>
<feGaussianBlur stdDeviation="2"/>
<feComposite in2="hardAlpha" operator="arithmetic" k2="-1" k3="1"/>
<feColorMatrix type="matrix" values="0 0 0 0 0 0 0 0 0 0 0 0 0 0 0 0 0 0 0.25 0"/>
<feBlend mode="normal" in2="effect2_innerShadow_1059_305" result="effect3_innerShadow_1059_305"/>
</filter>
</defs>
</svg>
