<svg width="56" height="61" viewBox="0 0 56 61" fill="none" xmlns="http://www.w3.org/2000/svg">
<path d="M33.9196 20.5015V13.1671C33.9196 13.1671 14.9972 13.1671 15.2529 29.3875C15.5086 45.6078 33.9196 45.6078 33.9196 45.6078V38.8376" stroke="#03647C" stroke-opacity="0.78" stroke-width="6"/>
<path d="M6 2V29H14" stroke="#03647C" stroke-opacity="0.78" stroke-width="6"/>
<path d="M24.0313 3.65747H4.59753" stroke="#03647C" stroke-opacity="0.78" stroke-width="6"/>
<path d="M23.5255 3.73397C23.5255 3.73397 52.6598 1.02921 52.8359 28.8609C53.012 56.6927 23.8499 54.9884 23.8499 54.9884" stroke="#03647C" stroke-opacity="0.78" stroke-width="6"/>
<path d="M27.1805 55.0131L5.62561 54.7939" stroke="#03647C" stroke-opacity="0.78" stroke-width="6"/>
<ellipse cx="33.8605" cy="20.7095" rx="2.30137" ry="2.53884" fill="#D9D9D9"/>
<path d="M35.6619 20.7095C35.6619 21.8829 34.8103 22.7484 33.8605 22.7484C32.9107 22.7484 32.0591 21.8829 32.0591 20.7095C32.0591 19.5362 32.9107 18.6707 33.8605 18.6707C34.8103 18.6707 35.6619 19.5362 35.6619 20.7095Z" stroke="black" stroke-opacity="0.42"/>
<ellipse cx="33.9751" cy="38.1987" rx="2.30137" ry="2.53884" fill="#D9D9D9"/>
<path d="M35.7765 38.1987C35.7765 39.3721 34.9249 40.2376 33.9751 40.2376C33.0253 40.2376 32.1738 39.3721 32.1738 38.1987C32.1738 37.0254 33.0253 36.1599 33.9751 36.1599C34.9249 36.1599 35.7765 37.0254 35.7765 38.1987Z" stroke="black" stroke-opacity="0.4"/>
<ellipse cx="5.62557" cy="54.7939" rx="5.62557" ry="6.20605" fill="#A3A0A0"/>
<path d="M10.7511 54.7939C10.7511 57.9926 8.41128 60.4999 5.62557 60.4999C2.83986 60.4999 0.5 57.9926 0.5 54.7939C0.5 51.5952 2.83986 49.0878 5.62557 49.0878C8.41128 49.0878 10.7511 51.5952 10.7511 54.7939Z" stroke="black" stroke-opacity="0.15"/>
<ellipse cx="5.36985" cy="55.0758" rx="2.30137" ry="2.53884" fill="#D9D9D9"/>
</svg>
