<svg width="273" height="276" viewBox="0 0 273 276" fill="none" xmlns="http://www.w3.org/2000/svg">
<g filter="url(#filter0_iii_1066_306)">
<path d="M149.393 50.2139V38.5139C149.393 38.5139 116.093 38.5139 116.543 64.3889C116.993 90.2639 149.393 90.2639 149.393 90.2639V79.4639" stroke="url(#paint0_linear_1066_306)" stroke-width="8"/>
<path d="M99.2795 20.7V64.35H115.03" stroke="url(#paint1_linear_1066_306)" stroke-width="8"/>
<path d="M131.991 23.3435H97.791" stroke="#996C32" stroke-width="8"/>
<path d="M131.101 23.4665C131.101 23.4665 182.372 19.1518 182.682 63.5495C182.992 107.947 131.671 105.228 131.671 105.228" stroke="url(#paint2_linear_1066_306)" stroke-width="8"/>
<path d="M137.533 105.267L99.6 104.918" stroke="#996C32" stroke-width="8"/>
<circle cx="149.289" cy="50.5456" r="4.05" fill="#D9D9D9"/>
<circle cx="149.289" cy="50.5456" r="3.55" stroke="black" stroke-opacity="0.42"/>
<circle cx="149.49" cy="78.4448" r="4.05" fill="#D9D9D9"/>
<circle cx="149.49" cy="78.4448" r="3.55" stroke="black" stroke-opacity="0.4"/>
<ellipse cx="99.6" cy="104.918" rx="9.9" ry="9.9" fill="#A3A0A0"/>
<path d="M109 104.918C109 110.109 104.791 114.318 99.6 114.318C94.4085 114.318 90.2 110.109 90.2 104.918C90.2 99.7263 94.4085 95.5178 99.6 95.5178C104.791 95.5178 109 99.7263 109 104.918Z" stroke="black" stroke-opacity="0.15"/>
<ellipse cx="99.15" cy="105.368" rx="4.05" ry="4.05" fill="#D9D9D9"/>
</g>
<path d="M0.796875 161V160.187H1.78564C2.6499 160.187 3.30908 160.055 3.76318 159.792C4.23193 159.513 4.57617 159.14 4.7959 158.671C4.92773 158.363 4.99365 157.44 4.99365 155.902V136.303C4.99365 134.779 4.91309 133.827 4.75195 133.446C4.59082 133.065 4.26123 132.736 3.76318 132.458C3.27979 132.165 2.62061 132.018 1.78564 132.018H0.796875V131.205H14.1343C17.6938 131.205 20.5576 131.688 22.7256 132.655C25.377 133.842 27.3838 135.636 28.7461 138.039C30.123 140.441 30.8115 143.158 30.8115 146.19C30.8115 148.285 30.4746 150.219 29.8008 151.991C29.127 153.749 28.2554 155.207 27.186 156.364C26.1167 157.506 24.8789 158.429 23.4727 159.132C22.0811 159.821 20.3745 160.355 18.353 160.736C17.4595 160.912 16.0532 161 14.1343 161H0.796875ZM12.1567 132.897V156.144C12.1567 157.375 12.2153 158.129 12.3325 158.407C12.4497 158.686 12.6475 158.898 12.9258 159.044C13.3213 159.264 13.8926 159.374 14.6396 159.374C17.0859 159.374 18.9536 158.539 20.2427 156.869C22.0005 154.613 22.8794 151.112 22.8794 146.366C22.8794 142.543 22.2788 139.489 21.0776 137.204C20.1255 135.417 18.9023 134.201 17.4082 133.556C16.3535 133.102 14.603 132.882 12.1567 132.897ZM43.9292 139.84C45.7163 139.84 47.3789 140.302 48.917 141.225C50.4551 142.147 51.6196 143.458 52.4106 145.158C53.2163 146.857 53.6191 148.717 53.6191 150.739C53.6191 153.654 52.8794 156.093 51.3999 158.056C49.6128 160.429 47.1445 161.615 43.9951 161.615C40.9043 161.615 38.5239 160.531 36.854 158.363C35.1841 156.195 34.3491 153.683 34.3491 150.827C34.3491 147.882 35.1987 145.319 36.8979 143.136C38.6118 140.939 40.9556 139.84 43.9292 139.84ZM44.0171 141.4C43.27 141.4 42.6255 141.686 42.0835 142.257C41.5562 142.814 41.2046 143.927 41.0288 145.597C40.8677 147.252 40.7871 149.56 40.7871 152.519C40.7871 154.086 40.8896 155.551 41.0947 156.913C41.2559 157.953 41.6001 158.744 42.1274 159.286C42.6548 159.828 43.2554 160.099 43.9292 160.099C44.5884 160.099 45.1377 159.916 45.5771 159.55C46.1484 159.052 46.5293 158.356 46.7197 157.462C47.0127 156.071 47.1592 153.258 47.1592 149.025C47.1592 146.535 47.02 144.828 46.7417 143.905C46.4634 142.968 46.0532 142.287 45.5112 141.862C45.1304 141.554 44.6323 141.4 44.0171 141.4ZM73.5044 155.705L74.1855 156.232C73.2188 158.048 72.0103 159.403 70.5601 160.297C69.1245 161.176 67.5938 161.615 65.9678 161.615C63.2285 161.615 61.0386 160.583 59.3979 158.517C57.7573 156.452 56.937 153.969 56.937 151.068C56.937 148.271 57.6841 145.81 59.1782 143.686C60.98 141.122 63.4629 139.84 66.627 139.84C68.751 139.84 70.4355 140.375 71.6807 141.444C72.9404 142.514 73.5703 143.708 73.5703 145.026C73.5703 145.861 73.314 146.527 72.8013 147.025C72.3032 147.523 71.644 147.772 70.8237 147.772C69.9595 147.772 69.2417 147.487 68.6704 146.916C68.1138 146.344 67.7695 145.326 67.6377 143.861C67.5498 142.938 67.3374 142.294 67.0005 141.928C66.6636 141.562 66.2681 141.378 65.814 141.378C65.1108 141.378 64.5103 141.752 64.0122 142.499C63.2505 143.627 62.8696 145.355 62.8696 147.685C62.8696 149.618 63.1772 151.471 63.7925 153.244C64.4077 155.001 65.25 156.312 66.3193 157.177C67.125 157.807 68.0771 158.122 69.1758 158.122C69.8936 158.122 70.5747 157.953 71.2192 157.616C71.8638 157.279 72.6255 156.642 73.5044 155.705ZM84.8862 132.941V140.456H89.7642V142.631H84.8862V155.309C84.8862 156.496 84.9375 157.265 85.04 157.616C85.1572 157.953 85.355 158.231 85.6333 158.451C85.9116 158.656 86.168 158.759 86.4023 158.759C87.3545 158.759 88.2554 158.034 89.105 156.583L89.7642 157.067C88.5776 159.879 86.6514 161.286 83.9854 161.286C82.6816 161.286 81.5757 160.927 80.6675 160.209C79.7739 159.477 79.2026 158.664 78.9536 157.77C78.8071 157.272 78.7339 155.924 78.7339 153.727V142.631H76.0532V141.862C77.8989 140.558 79.4663 139.188 80.7554 137.753C82.0591 136.317 83.1943 134.713 84.1611 132.941H84.8862ZM101.41 139.84C103.197 139.84 104.859 140.302 106.397 141.225C107.936 142.147 109.1 143.458 109.891 145.158C110.697 146.857 111.1 148.717 111.1 150.739C111.1 153.654 110.36 156.093 108.88 158.056C107.093 160.429 104.625 161.615 101.476 161.615C98.3848 161.615 96.0044 160.531 94.3345 158.363C92.6646 156.195 91.8296 153.683 91.8296 150.827C91.8296 147.882 92.6792 145.319 94.3784 143.136C96.0923 140.939 98.436 139.84 101.41 139.84ZM101.498 141.4C100.75 141.4 100.106 141.686 99.564 142.257C99.0366 142.814 98.6851 143.927 98.5093 145.597C98.3481 147.252 98.2676 149.56 98.2676 152.519C98.2676 154.086 98.3701 155.551 98.5752 156.913C98.7363 157.953 99.0806 158.744 99.6079 159.286C100.135 159.828 100.736 160.099 101.41 160.099C102.069 160.099 102.618 159.916 103.058 159.55C103.629 159.052 104.01 158.356 104.2 157.462C104.493 156.071 104.64 153.258 104.64 149.025C104.64 146.535 104.5 144.828 104.222 143.905C103.944 142.968 103.534 142.287 102.992 141.862C102.611 141.554 102.113 141.4 101.498 141.4ZM142.74 130.524V140.851H141.883C141.239 138.156 140.038 136.09 138.28 134.655C136.522 133.219 134.53 132.501 132.303 132.501C130.443 132.501 128.736 133.036 127.184 134.105C125.631 135.175 124.496 136.574 123.778 138.302C122.855 140.514 122.394 142.975 122.394 145.685C122.394 148.351 122.73 150.783 123.404 152.98C124.078 155.163 125.133 156.818 126.568 157.946C128.004 159.059 129.864 159.616 132.149 159.616C134.024 159.616 135.738 159.206 137.291 158.385C138.858 157.565 140.506 156.151 142.235 154.145V156.715C140.565 158.458 138.822 159.726 137.005 160.517C135.204 161.293 133.094 161.681 130.677 161.681C127.499 161.681 124.671 161.044 122.196 159.77C119.735 158.495 117.831 156.664 116.483 154.276C115.15 151.889 114.483 149.347 114.483 146.652C114.483 143.81 115.223 141.115 116.703 138.566C118.197 136.017 120.204 134.04 122.723 132.633C125.257 131.227 127.945 130.524 130.787 130.524C132.882 130.524 135.094 130.978 137.423 131.886C138.771 132.414 139.627 132.677 139.994 132.677C140.462 132.677 140.865 132.509 141.202 132.172C141.554 131.82 141.781 131.271 141.883 130.524H142.74ZM156.429 139.84C158.216 139.84 159.879 140.302 161.417 141.225C162.955 142.147 164.12 143.458 164.911 145.158C165.716 146.857 166.119 148.717 166.119 150.739C166.119 153.654 165.379 156.093 163.9 158.056C162.113 160.429 159.645 161.615 156.495 161.615C153.404 161.615 151.024 160.531 149.354 158.363C147.684 156.195 146.849 153.683 146.849 150.827C146.849 147.882 147.699 145.319 149.398 143.136C151.112 140.939 153.456 139.84 156.429 139.84ZM156.517 141.4C155.77 141.4 155.125 141.686 154.583 142.257C154.056 142.814 153.705 143.927 153.529 145.597C153.368 147.252 153.287 149.56 153.287 152.519C153.287 154.086 153.39 155.551 153.595 156.913C153.756 157.953 154.1 158.744 154.627 159.286C155.155 159.828 155.755 160.099 156.429 160.099C157.088 160.099 157.638 159.916 158.077 159.55C158.648 159.052 159.029 158.356 159.22 157.462C159.513 156.071 159.659 153.258 159.659 149.025C159.659 146.535 159.52 144.828 159.242 143.905C158.963 142.968 158.553 142.287 158.011 141.862C157.63 141.554 157.132 141.4 156.517 141.4ZM177.633 140.456V143.114C178.688 141.972 179.698 141.144 180.665 140.631C181.632 140.104 182.672 139.84 183.785 139.84C185.118 139.84 186.224 140.214 187.103 140.961C187.982 141.693 188.568 142.609 188.861 143.708C189.095 144.542 189.212 146.146 189.212 148.52V156.518C189.212 158.1 189.352 159.088 189.63 159.484C189.923 159.865 190.523 160.106 191.432 160.209V161H181.039V160.209C181.815 160.106 182.372 159.784 182.708 159.242C182.943 158.876 183.06 157.968 183.06 156.518V147.377C183.06 145.692 182.994 144.63 182.862 144.191C182.73 143.751 182.503 143.415 182.181 143.18C181.874 142.931 181.529 142.807 181.148 142.807C179.889 142.807 178.717 143.708 177.633 145.509V156.518C177.633 158.056 177.772 159.03 178.05 159.44C178.343 159.85 178.878 160.106 179.654 160.209V161H169.261V160.209C170.125 160.121 170.741 159.843 171.107 159.374C171.356 159.052 171.48 158.1 171.48 156.518V144.916C171.48 143.363 171.334 142.396 171.041 142.016C170.763 141.635 170.169 141.386 169.261 141.269V140.456H177.633ZM202.682 140.456V143.114C203.736 141.972 204.747 141.144 205.714 140.631C206.681 140.104 207.721 139.84 208.834 139.84C210.167 139.84 211.273 140.214 212.152 140.961C213.031 141.693 213.617 142.609 213.91 143.708C214.144 144.542 214.261 146.146 214.261 148.52V156.518C214.261 158.1 214.4 159.088 214.679 159.484C214.972 159.865 215.572 160.106 216.48 160.209V161H206.087V160.209C206.864 160.106 207.42 159.784 207.757 159.242C207.992 158.876 208.109 157.968 208.109 156.518V147.377C208.109 145.692 208.043 144.63 207.911 144.191C207.779 143.751 207.552 143.415 207.23 143.18C206.922 142.931 206.578 142.807 206.197 142.807C204.938 142.807 203.766 143.708 202.682 145.509V156.518C202.682 158.056 202.821 159.03 203.099 159.44C203.392 159.85 203.927 160.106 204.703 160.209V161H194.31V160.209C195.174 160.121 195.79 159.843 196.156 159.374C196.405 159.052 196.529 158.1 196.529 156.518V144.916C196.529 143.363 196.383 142.396 196.09 142.016C195.812 141.635 195.218 141.386 194.31 141.269V140.456H202.682ZM236.739 149.992H225.467C225.599 152.716 226.324 154.87 227.643 156.452C228.653 157.667 229.869 158.275 231.29 158.275C232.169 158.275 232.967 158.034 233.685 157.55C234.403 157.052 235.172 156.166 235.992 154.892L236.739 155.375C235.626 157.646 234.396 159.257 233.048 160.209C231.7 161.146 230.14 161.615 228.368 161.615C225.321 161.615 223.014 160.443 221.446 158.1C220.187 156.21 219.557 153.866 219.557 151.068C219.557 147.641 220.479 144.916 222.325 142.895C224.186 140.858 226.361 139.84 228.851 139.84C230.931 139.84 232.733 140.697 234.256 142.411C235.794 144.11 236.622 146.637 236.739 149.992ZM231.334 148.52C231.334 146.161 231.202 144.542 230.938 143.664C230.689 142.785 230.294 142.118 229.752 141.664C229.444 141.4 229.034 141.269 228.521 141.269C227.76 141.269 227.137 141.642 226.654 142.389C225.79 143.693 225.357 145.48 225.357 147.75V148.52H231.334ZM256.097 155.705L256.778 156.232C255.812 158.048 254.603 159.403 253.153 160.297C251.717 161.176 250.187 161.615 248.561 161.615C245.821 161.615 243.631 160.583 241.991 158.517C240.35 156.452 239.53 153.969 239.53 151.068C239.53 148.271 240.277 145.81 241.771 143.686C243.573 141.122 246.056 139.84 249.22 139.84C251.344 139.84 253.028 140.375 254.273 141.444C255.533 142.514 256.163 143.708 256.163 145.026C256.163 145.861 255.907 146.527 255.394 147.025C254.896 147.523 254.237 147.772 253.417 147.772C252.552 147.772 251.834 147.487 251.263 146.916C250.707 146.344 250.362 145.326 250.23 143.861C250.143 142.938 249.93 142.294 249.593 141.928C249.256 141.562 248.861 141.378 248.407 141.378C247.704 141.378 247.103 141.752 246.605 142.499C245.843 143.627 245.462 145.355 245.462 147.685C245.462 149.618 245.77 151.471 246.385 153.244C247 155.001 247.843 156.312 248.912 157.177C249.718 157.807 250.67 158.122 251.769 158.122C252.486 158.122 253.167 157.953 253.812 157.616C254.457 157.279 255.218 156.642 256.097 155.705ZM267.479 132.941V140.456H272.357V142.631H267.479V155.309C267.479 156.496 267.53 157.265 267.633 157.616C267.75 157.953 267.948 158.231 268.226 158.451C268.504 158.656 268.761 158.759 268.995 158.759C269.947 158.759 270.848 158.034 271.698 156.583L272.357 157.067C271.17 159.879 269.244 161.286 266.578 161.286C265.274 161.286 264.168 160.927 263.26 160.209C262.367 159.477 261.795 158.664 261.546 157.77C261.4 157.272 261.327 155.924 261.327 153.727V142.631H258.646V141.862C260.492 140.558 262.059 139.188 263.348 137.753C264.652 136.317 265.787 134.713 266.754 132.941H267.479Z" fill="url(#paint3_linear_1066_306)"/>
<path d="M106.717 201.103V203.489C106.717 203.955 106.744 204.249 106.799 204.372C106.859 204.49 106.96 204.585 107.104 204.657C107.252 204.729 107.521 204.765 107.91 204.765V205H103.537V204.765C103.934 204.765 104.203 204.729 104.343 204.657C104.487 204.581 104.586 204.484 104.641 204.365C104.7 204.247 104.73 203.955 104.73 203.489V197.903C104.73 197.438 104.7 197.146 104.641 197.027C104.586 196.905 104.487 196.807 104.343 196.735C104.199 196.663 103.93 196.627 103.537 196.627V196.393H107.288C108.524 196.393 109.41 196.613 109.948 197.053C110.485 197.493 110.754 198.043 110.754 198.703C110.754 199.262 110.58 199.74 110.233 200.138C109.886 200.535 109.408 200.806 108.799 200.95C108.388 201.052 107.694 201.103 106.717 201.103ZM106.717 196.888V200.607C106.856 200.616 106.962 200.62 107.034 200.62C107.55 200.62 107.948 200.468 108.228 200.163C108.507 199.854 108.646 199.378 108.646 198.735C108.646 198.096 108.507 197.628 108.228 197.332C107.948 197.036 107.531 196.888 106.977 196.888H106.717ZM114.391 198.887C114.907 198.887 115.388 199.021 115.832 199.287C116.276 199.554 116.613 199.932 116.841 200.423C117.074 200.914 117.19 201.452 117.19 202.036C117.19 202.878 116.977 203.582 116.549 204.149C116.033 204.835 115.32 205.178 114.41 205.178C113.517 205.178 112.83 204.865 112.347 204.238C111.865 203.612 111.624 202.886 111.624 202.061C111.624 201.21 111.869 200.47 112.36 199.839C112.855 199.205 113.532 198.887 114.391 198.887ZM114.417 199.338C114.201 199.338 114.014 199.42 113.858 199.585C113.706 199.746 113.604 200.068 113.553 200.55C113.507 201.028 113.483 201.695 113.483 202.55C113.483 203.003 113.513 203.426 113.572 203.819C113.619 204.12 113.718 204.348 113.871 204.505C114.023 204.661 114.196 204.74 114.391 204.74C114.582 204.74 114.74 204.687 114.867 204.581C115.032 204.437 115.142 204.236 115.197 203.978C115.282 203.576 115.324 202.764 115.324 201.541C115.324 200.821 115.284 200.328 115.204 200.062C115.123 199.791 115.005 199.594 114.848 199.471C114.738 199.382 114.594 199.338 114.417 199.338ZM123.976 205.178L122.351 200.823L120.758 205.178H120.428L118.847 200.874C118.61 200.218 118.409 199.791 118.244 199.592C118.138 199.456 117.978 199.359 117.762 199.3V199.065H120.758V199.3C120.555 199.3 120.415 199.329 120.339 199.389C120.263 199.448 120.225 199.516 120.225 199.592C120.225 199.664 120.292 199.88 120.428 200.239L121.297 202.556L122.135 200.239L122.072 200.087C121.945 199.77 121.833 199.569 121.735 199.484C121.642 199.395 121.496 199.334 121.297 199.3V199.065H124.338V199.3C124.101 199.312 123.951 199.346 123.887 199.401C123.824 199.452 123.792 199.526 123.792 199.624C123.792 199.717 123.853 199.922 123.976 200.239L124.814 202.556L125.576 200.423C125.686 200.119 125.741 199.911 125.741 199.801C125.741 199.636 125.701 199.516 125.62 199.439C125.54 199.363 125.383 199.317 125.15 199.3V199.065H126.909V199.3C126.714 199.325 126.56 199.395 126.445 199.509C126.331 199.619 126.183 199.937 126.001 200.461L124.338 205.178H123.976ZM132.514 201.82H129.257C129.295 202.607 129.505 203.229 129.886 203.686C130.178 204.037 130.529 204.213 130.939 204.213C131.193 204.213 131.424 204.143 131.631 204.003C131.839 203.86 132.061 203.604 132.298 203.235L132.514 203.375C132.192 204.031 131.837 204.496 131.447 204.771C131.058 205.042 130.607 205.178 130.095 205.178C129.215 205.178 128.549 204.839 128.096 204.162C127.732 203.616 127.55 202.939 127.55 202.131C127.55 201.141 127.816 200.354 128.35 199.77C128.887 199.181 129.515 198.887 130.235 198.887C130.836 198.887 131.356 199.135 131.796 199.63C132.241 200.121 132.48 200.851 132.514 201.82ZM130.952 201.395C130.952 200.713 130.914 200.246 130.838 199.992C130.766 199.738 130.652 199.545 130.495 199.414C130.406 199.338 130.288 199.3 130.14 199.3C129.92 199.3 129.74 199.408 129.6 199.624C129.35 200 129.226 200.516 129.226 201.172V201.395H130.952ZM135.726 199.065V200.411C136.119 199.797 136.464 199.391 136.76 199.192C137.056 198.989 137.342 198.887 137.617 198.887C137.854 198.887 138.042 198.961 138.182 199.109C138.326 199.253 138.398 199.458 138.398 199.725C138.398 200.009 138.328 200.229 138.188 200.385C138.053 200.542 137.888 200.62 137.693 200.62C137.469 200.62 137.274 200.548 137.109 200.404C136.944 200.26 136.847 200.18 136.817 200.163C136.775 200.138 136.726 200.125 136.671 200.125C136.549 200.125 136.432 200.172 136.322 200.265C136.149 200.409 136.018 200.614 135.929 200.88C135.793 201.291 135.726 201.744 135.726 202.239V203.604L135.732 203.959C135.732 204.2 135.747 204.355 135.776 204.422C135.827 204.537 135.901 204.621 135.999 204.676C136.1 204.727 136.269 204.759 136.506 204.771V205H133.301V204.771C133.559 204.75 133.732 204.681 133.821 204.562C133.914 204.439 133.961 204.12 133.961 203.604V200.322C133.961 199.983 133.944 199.767 133.91 199.674C133.868 199.556 133.806 199.469 133.726 199.414C133.646 199.359 133.504 199.321 133.301 199.3V199.065H135.726ZM143.825 201.82H140.569C140.607 202.607 140.816 203.229 141.197 203.686C141.489 204.037 141.84 204.213 142.251 204.213C142.505 204.213 142.736 204.143 142.943 204.003C143.15 203.86 143.372 203.604 143.609 203.235L143.825 203.375C143.504 204.031 143.148 204.496 142.759 204.771C142.369 205.042 141.919 205.178 141.407 205.178C140.527 205.178 139.86 204.839 139.407 204.162C139.043 203.616 138.861 202.939 138.861 202.131C138.861 201.141 139.128 200.354 139.661 199.77C140.199 199.181 140.827 198.887 141.546 198.887C142.147 198.887 142.668 199.135 143.108 199.63C143.552 200.121 143.791 200.851 143.825 201.82ZM142.264 201.395C142.264 200.713 142.226 200.246 142.149 199.992C142.077 199.738 141.963 199.545 141.807 199.414C141.718 199.338 141.599 199.3 141.451 199.3C141.231 199.3 141.051 199.408 140.912 199.624C140.662 200 140.537 200.516 140.537 201.172V201.395H142.264ZM150.344 196.393V203.223C150.344 203.684 150.357 203.957 150.382 204.042C150.416 204.181 150.48 204.285 150.573 204.353C150.67 204.42 150.837 204.463 151.074 204.479V204.689L148.567 205.178V204.238C148.266 204.602 147.998 204.85 147.761 204.981C147.528 205.112 147.264 205.178 146.967 205.178C146.21 205.178 145.611 204.839 145.171 204.162C144.815 203.612 144.638 202.937 144.638 202.137C144.638 201.498 144.748 200.927 144.968 200.423C145.188 199.916 145.488 199.533 145.869 199.274C146.254 199.016 146.667 198.887 147.107 198.887C147.39 198.887 147.642 198.942 147.862 199.052C148.082 199.162 148.317 199.355 148.567 199.63V197.84C148.567 197.387 148.548 197.114 148.51 197.021C148.459 196.898 148.383 196.807 148.281 196.748C148.18 196.689 147.989 196.659 147.71 196.659V196.393H150.344ZM148.567 200.417C148.254 199.816 147.871 199.516 147.418 199.516C147.261 199.516 147.132 199.558 147.031 199.643C146.874 199.774 146.745 200.004 146.644 200.334C146.546 200.665 146.498 201.17 146.498 201.852C146.498 202.601 146.553 203.155 146.663 203.515C146.773 203.874 146.923 204.135 147.113 204.295C147.211 204.376 147.344 204.416 147.513 204.416C147.886 204.416 148.237 204.124 148.567 203.54V200.417ZM160.405 200.436C161.222 200.626 161.795 200.857 162.125 201.128C162.599 201.513 162.836 202.012 162.836 202.626C162.836 203.273 162.576 203.809 162.056 204.232C161.417 204.744 160.488 205 159.269 205H154.896V204.765C155.293 204.765 155.562 204.729 155.702 204.657C155.846 204.581 155.945 204.484 156 204.365C156.059 204.247 156.089 203.955 156.089 203.489V197.903C156.089 197.438 156.059 197.146 156 197.027C155.945 196.905 155.846 196.807 155.702 196.735C155.558 196.663 155.289 196.627 154.896 196.627V196.393H159.021C160.007 196.393 160.706 196.481 161.116 196.659C161.527 196.833 161.85 197.095 162.087 197.446C162.324 197.793 162.443 198.164 162.443 198.557C162.443 198.972 162.293 199.342 161.992 199.668C161.692 199.99 161.163 200.246 160.405 200.436ZM158.095 200.265C158.696 200.265 159.138 200.197 159.421 200.062C159.709 199.926 159.929 199.736 160.082 199.49C160.234 199.245 160.31 198.932 160.31 198.551C160.31 198.17 160.234 197.859 160.082 197.618C159.933 197.372 159.72 197.186 159.44 197.059C159.161 196.932 158.713 196.871 158.095 196.875V200.265ZM158.095 200.76V203.521L158.088 203.838C158.088 204.067 158.146 204.24 158.26 204.359C158.378 204.473 158.552 204.53 158.78 204.53C159.119 204.53 159.43 204.456 159.713 204.308C160.001 204.156 160.221 203.938 160.374 203.654C160.526 203.367 160.602 203.047 160.602 202.696C160.602 202.294 160.509 201.934 160.323 201.617C160.137 201.295 159.881 201.071 159.555 200.944C159.229 200.817 158.742 200.756 158.095 200.76ZM166.455 205.241L164.538 200.842C164.25 200.178 164.036 199.77 163.896 199.617C163.761 199.465 163.596 199.359 163.401 199.3V199.065H166.556V199.3C166.349 199.308 166.203 199.348 166.118 199.42C166.034 199.492 165.991 199.579 165.991 199.681C165.991 199.841 166.097 200.159 166.309 200.633L167.324 202.956L168.016 201.16C168.266 200.521 168.391 200.076 168.391 199.827C168.391 199.67 168.338 199.545 168.232 199.452C168.13 199.359 167.948 199.308 167.686 199.3V199.065H169.673V199.3C169.478 199.321 169.319 199.397 169.197 199.528C169.074 199.655 168.869 200.093 168.581 200.842L166.886 205.241C166.459 206.341 166.141 207.019 165.934 207.272C165.642 207.628 165.276 207.806 164.836 207.806C164.485 207.806 164.199 207.704 163.979 207.501C163.763 207.302 163.655 207.061 163.655 206.777C163.655 206.532 163.729 206.329 163.877 206.168C164.03 206.007 164.216 205.927 164.436 205.927C164.648 205.927 164.817 205.994 164.944 206.13C165.075 206.265 165.143 206.475 165.147 206.758C165.151 206.919 165.17 207.023 165.204 207.069C165.238 207.116 165.287 207.139 165.35 207.139C165.452 207.139 165.56 207.078 165.674 206.955C165.843 206.777 166.042 206.371 166.271 205.736L166.455 205.241ZM20.833 263.888V267.392H21.0044C21.5503 267.392 21.946 267.22 22.1914 266.877C22.4368 266.535 22.5934 266.029 22.6611 265.36H22.9023V269.867H22.6611C22.6104 269.376 22.5024 268.974 22.3374 268.661C22.1766 268.348 21.9883 268.139 21.7725 268.033C21.5566 267.923 21.2435 267.868 20.833 267.868V270.292C20.833 270.766 20.8521 271.056 20.8901 271.162C20.9325 271.268 21.0086 271.355 21.1187 271.422C21.2287 271.49 21.4064 271.524 21.6519 271.524H22.166C22.9701 271.524 23.6133 271.338 24.0957 270.965C24.5824 270.593 24.9315 270.026 25.1431 269.264H25.3779L24.9907 272H17.5513V271.765H17.8369C18.0866 271.765 18.2876 271.721 18.4399 271.632C18.55 271.573 18.6346 271.471 18.6938 271.327C18.7404 271.226 18.7637 270.959 18.7637 270.527V264.865C18.7637 264.476 18.7531 264.237 18.7319 264.148C18.6896 264 18.6113 263.886 18.4971 263.805C18.3363 263.687 18.1162 263.627 17.8369 263.627H17.5513V263.393H24.7559V265.938H24.5146C24.3919 265.316 24.2184 264.869 23.9941 264.599C23.7741 264.328 23.4609 264.129 23.0547 264.002C22.8177 263.926 22.3734 263.888 21.7217 263.888H20.833ZM28.8628 266.065V266.846C29.1886 266.49 29.4891 266.243 29.7642 266.103C30.0435 265.959 30.3481 265.887 30.6782 265.887C31.0591 265.887 31.3786 265.976 31.6367 266.154C31.8949 266.332 32.0938 266.602 32.2334 266.966C32.5719 266.585 32.8957 266.31 33.2046 266.141C33.5177 265.972 33.8436 265.887 34.1821 265.887C34.5926 265.887 34.9185 265.982 35.1597 266.173C35.4051 266.359 35.5744 266.598 35.6675 266.89C35.7648 267.178 35.8135 267.639 35.8135 268.274V270.705C35.8135 271.162 35.8537 271.446 35.9341 271.556C36.0187 271.666 36.1922 271.738 36.4546 271.771V272H33.3887V271.771C33.6299 271.75 33.8076 271.657 33.9219 271.492C33.998 271.378 34.0361 271.116 34.0361 270.705V268.153C34.0361 267.624 34.015 267.288 33.9727 267.144C33.9303 267 33.8626 266.894 33.7695 266.827C33.6807 266.755 33.5749 266.719 33.4521 266.719C33.2702 266.719 33.0861 266.786 32.8999 266.922C32.7137 267.053 32.5254 267.252 32.335 267.519V270.705C32.335 271.132 32.3709 271.401 32.4429 271.511C32.5402 271.668 32.7264 271.755 33.0015 271.771V272H29.9292V271.771C30.0942 271.763 30.2233 271.723 30.3164 271.651C30.4137 271.575 30.4772 271.486 30.5068 271.384C30.5407 271.278 30.5576 271.052 30.5576 270.705V268.153C30.5576 267.616 30.5365 267.279 30.4941 267.144C30.4518 267.009 30.3799 266.903 30.2783 266.827C30.181 266.75 30.0752 266.712 29.9609 266.712C29.7917 266.712 29.6372 266.757 29.4976 266.846C29.2987 266.977 29.0871 267.201 28.8628 267.519V270.705C28.8628 271.124 28.903 271.401 28.9834 271.537C29.068 271.668 29.2415 271.746 29.5039 271.771V272H26.4443V271.771C26.694 271.746 26.8717 271.666 26.9775 271.53C27.0495 271.437 27.0854 271.162 27.0854 270.705V267.354C27.0854 266.905 27.0431 266.626 26.9585 266.516C26.8781 266.406 26.7067 266.334 26.4443 266.3V266.065H28.8628ZM39.5269 271.397V273.606C39.5269 273.911 39.5501 274.118 39.5967 274.228C39.6475 274.338 39.7236 274.418 39.8252 274.469C39.9268 274.52 40.1257 274.545 40.4219 274.545V274.78H37.0386V274.545C37.3009 274.537 37.4956 274.463 37.6226 274.323C37.7072 274.226 37.7495 273.974 37.7495 273.568V267.303C37.7495 266.884 37.7008 266.617 37.6035 266.503C37.5062 266.384 37.3179 266.317 37.0386 266.3V266.065H39.5269V266.846C39.7342 266.541 39.9458 266.321 40.1616 266.186C40.4705 265.987 40.807 265.887 41.1709 265.887C41.6068 265.887 42.0024 266.025 42.3579 266.3C42.7176 266.575 42.9906 266.956 43.1768 267.442C43.363 267.925 43.4561 268.445 43.4561 269.004C43.4561 269.605 43.3587 270.155 43.1641 270.654C42.9736 271.149 42.6943 271.528 42.3262 271.791C41.9622 272.049 41.556 272.178 41.1074 272.178C40.7816 272.178 40.4769 272.106 40.1934 271.962C39.9818 271.852 39.7596 271.664 39.5269 271.397ZM39.5269 270.756C39.8908 271.272 40.2801 271.53 40.6948 271.53C40.9233 271.53 41.1117 271.41 41.2598 271.168C41.4798 270.813 41.5898 270.136 41.5898 269.137C41.5898 268.113 41.4692 267.413 41.228 267.036C41.0672 266.786 40.8514 266.662 40.5806 266.662C40.1532 266.662 39.8019 266.971 39.5269 267.588V270.756ZM47.2646 265.887C47.7809 265.887 48.2612 266.021 48.7056 266.287C49.1499 266.554 49.4863 266.932 49.7148 267.423C49.9476 267.914 50.064 268.452 50.064 269.036C50.064 269.878 49.8503 270.582 49.4229 271.149C48.9066 271.835 48.1935 272.178 47.2837 272.178C46.3908 272.178 45.7031 271.865 45.2207 271.238C44.7383 270.612 44.4971 269.886 44.4971 269.061C44.4971 268.21 44.7425 267.47 45.2334 266.839C45.7285 266.205 46.4056 265.887 47.2646 265.887ZM47.29 266.338C47.0742 266.338 46.888 266.42 46.7314 266.585C46.5791 266.746 46.4775 267.068 46.4268 267.55C46.3802 268.028 46.3569 268.695 46.3569 269.55C46.3569 270.003 46.3866 270.426 46.4458 270.819C46.4924 271.12 46.5918 271.348 46.7441 271.505C46.8965 271.661 47.07 271.74 47.2646 271.74C47.4551 271.74 47.6138 271.687 47.7407 271.581C47.9058 271.437 48.0158 271.236 48.0708 270.978C48.1554 270.576 48.1978 269.764 48.1978 268.541C48.1978 267.821 48.1576 267.328 48.0771 267.062C47.9967 266.791 47.8783 266.594 47.7217 266.471C47.6117 266.382 47.4678 266.338 47.29 266.338ZM56.8496 272.178L55.2246 267.823L53.6313 272.178H53.3013L51.7207 267.874C51.4837 267.218 51.2827 266.791 51.1177 266.592C51.0119 266.456 50.8511 266.359 50.6353 266.3V266.065H53.6313V266.3C53.4282 266.3 53.2886 266.329 53.2124 266.389C53.1362 266.448 53.0981 266.516 53.0981 266.592C53.0981 266.664 53.1659 266.88 53.3013 267.239L54.1709 269.556L55.0088 267.239L54.9453 267.087C54.8184 266.77 54.7062 266.569 54.6089 266.484C54.5158 266.395 54.3698 266.334 54.1709 266.3V266.065H57.2114V266.3C56.9744 266.312 56.8242 266.346 56.7607 266.401C56.6973 266.452 56.6655 266.526 56.6655 266.624C56.6655 266.717 56.7269 266.922 56.8496 267.239L57.6875 269.556L58.4492 267.423C58.5592 267.119 58.6143 266.911 58.6143 266.801C58.6143 266.636 58.5741 266.516 58.4937 266.439C58.4132 266.363 58.2567 266.317 58.0239 266.3V266.065H59.7822V266.3C59.5876 266.325 59.4331 266.395 59.3188 266.509C59.2046 266.619 59.0565 266.937 58.8745 267.461L57.2114 272.178H56.8496ZM65.3872 268.82H62.1309C62.1689 269.607 62.3784 270.229 62.7593 270.686C63.0513 271.037 63.4025 271.213 63.813 271.213C64.0669 271.213 64.2975 271.143 64.5049 271.003C64.7122 270.86 64.9344 270.604 65.1714 270.235L65.3872 270.375C65.0656 271.031 64.7101 271.496 64.3208 271.771C63.9315 272.042 63.4808 272.178 62.9688 272.178C62.0885 272.178 61.422 271.839 60.9692 271.162C60.6053 270.616 60.4233 269.939 60.4233 269.131C60.4233 268.141 60.6899 267.354 61.2231 266.77C61.7606 266.181 62.389 265.887 63.1084 265.887C63.7093 265.887 64.2298 266.135 64.6699 266.63C65.1143 267.121 65.3534 267.851 65.3872 268.82ZM63.8257 268.395C63.8257 267.713 63.7876 267.246 63.7114 266.992C63.6395 266.738 63.5252 266.545 63.3687 266.414C63.2798 266.338 63.1613 266.3 63.0132 266.3C62.7931 266.3 62.6133 266.408 62.4736 266.624C62.224 267 62.0991 267.516 62.0991 268.172V268.395H63.8257ZM68.5991 266.065V267.411C68.9927 266.797 69.3376 266.391 69.6338 266.192C69.93 265.989 70.2157 265.887 70.4907 265.887C70.7277 265.887 70.916 265.961 71.0557 266.109C71.1995 266.253 71.2715 266.458 71.2715 266.725C71.2715 267.009 71.2017 267.229 71.062 267.385C70.9266 267.542 70.7616 267.62 70.5669 267.62C70.3426 267.62 70.1479 267.548 69.9829 267.404C69.8179 267.26 69.7205 267.18 69.6909 267.163C69.6486 267.138 69.5999 267.125 69.5449 267.125C69.4222 267.125 69.3058 267.172 69.1958 267.265C69.0223 267.409 68.8911 267.614 68.8022 267.88C68.6668 268.291 68.5991 268.744 68.5991 269.239V270.604L68.6055 270.959C68.6055 271.2 68.6203 271.355 68.6499 271.422C68.7007 271.537 68.7747 271.621 68.8721 271.676C68.9736 271.727 69.1429 271.759 69.3799 271.771V272H66.1743V271.771C66.4325 271.75 66.606 271.681 66.6948 271.562C66.7879 271.439 66.8345 271.12 66.8345 270.604V267.322C66.8345 266.983 66.8175 266.767 66.7837 266.674C66.7414 266.556 66.68 266.469 66.5996 266.414C66.5192 266.359 66.3774 266.321 66.1743 266.3V266.065H68.5991ZM73.3408 263.189C73.6159 263.189 73.8486 263.287 74.0391 263.481C74.2295 263.672 74.3247 263.903 74.3247 264.173C74.3247 264.444 74.2274 264.675 74.0327 264.865C73.8423 265.056 73.6117 265.151 73.3408 265.151C73.07 265.151 72.8394 265.056 72.6489 264.865C72.4585 264.675 72.3633 264.444 72.3633 264.173C72.3633 263.903 72.4585 263.672 72.6489 263.481C72.8394 263.287 73.07 263.189 73.3408 263.189ZM74.2295 266.065V270.769C74.2295 271.188 74.2782 271.456 74.3755 271.575C74.4728 271.689 74.6632 271.755 74.9468 271.771V272H71.7412V271.771C72.0036 271.763 72.1982 271.687 72.3252 271.543C72.4098 271.446 72.4521 271.188 72.4521 270.769V267.303C72.4521 266.884 72.4035 266.617 72.3062 266.503C72.2088 266.384 72.0205 266.317 71.7412 266.3V266.065H74.2295ZM77.9556 266.065V266.833C78.2603 266.503 78.5522 266.264 78.8315 266.116C79.1108 265.963 79.4113 265.887 79.7329 265.887C80.118 265.887 80.4375 265.995 80.6914 266.211C80.9453 266.423 81.1146 266.687 81.1992 267.004C81.2669 267.246 81.3008 267.709 81.3008 268.395V270.705C81.3008 271.162 81.341 271.448 81.4214 271.562C81.506 271.672 81.6795 271.742 81.9419 271.771V272H78.9395V271.771C79.1637 271.742 79.3245 271.649 79.4219 271.492C79.4896 271.386 79.5234 271.124 79.5234 270.705V268.064C79.5234 267.578 79.5044 267.271 79.4663 267.144C79.4282 267.017 79.3626 266.92 79.2695 266.852C79.1807 266.78 79.0812 266.744 78.9712 266.744C78.6073 266.744 78.2687 267.004 77.9556 267.525V270.705C77.9556 271.149 77.9958 271.431 78.0762 271.549C78.1608 271.668 78.3153 271.742 78.5396 271.771V272H75.5371V271.771C75.7868 271.746 75.9645 271.666 76.0703 271.53C76.1423 271.437 76.1782 271.162 76.1782 270.705V267.354C76.1782 266.905 76.1359 266.626 76.0513 266.516C75.9709 266.406 75.7995 266.334 75.5371 266.3V266.065H77.9556ZM86.5757 266.135H88.5752V266.833H87.439C87.6463 267.04 87.7902 267.229 87.8706 267.398C87.9722 267.626 88.0229 267.866 88.0229 268.115C88.0229 268.538 87.9045 268.907 87.6675 269.22C87.4347 269.529 87.1152 269.772 86.709 269.95C86.307 270.123 85.9494 270.21 85.6362 270.21C85.6108 270.21 85.3569 270.199 84.8745 270.178C84.6841 270.178 84.5233 270.242 84.3921 270.369C84.2651 270.491 84.2017 270.639 84.2017 270.813C84.2017 270.965 84.2588 271.09 84.373 271.188C84.4915 271.285 84.682 271.333 84.9443 271.333L86.0425 271.321C86.9312 271.321 87.5426 271.418 87.877 271.613C88.3551 271.884 88.5942 272.3 88.5942 272.863C88.5942 273.223 88.4842 273.549 88.2642 273.841C88.0441 274.137 87.7542 274.355 87.3945 274.495C86.8486 274.702 86.2202 274.806 85.5093 274.806C84.9761 274.806 84.4894 274.753 84.0493 274.647C83.6092 274.545 83.2939 274.402 83.1035 274.215C82.9131 274.033 82.8179 273.841 82.8179 273.638C82.8179 273.443 82.8898 273.267 83.0337 273.111C83.1818 272.958 83.4548 272.829 83.8525 272.724C83.3024 272.453 83.0273 272.076 83.0273 271.594C83.0273 271.302 83.1395 271.018 83.3638 270.743C83.5881 270.468 83.9435 270.229 84.4302 270.026C83.8631 269.819 83.4526 269.546 83.1987 269.207C82.9448 268.868 82.8179 268.477 82.8179 268.033C82.8179 267.453 83.0549 266.951 83.5288 266.528C84.0028 266.101 84.6121 265.887 85.3569 265.887C85.7505 265.887 86.1567 265.97 86.5757 266.135ZM85.4775 266.281C85.2321 266.281 85.0247 266.406 84.8555 266.655C84.6862 266.901 84.6016 267.413 84.6016 268.191C84.6016 268.822 84.6841 269.256 84.8491 269.493C85.0184 269.725 85.2173 269.842 85.4458 269.842C85.6997 269.842 85.9113 269.725 86.0806 269.493C86.2498 269.26 86.3345 268.807 86.3345 268.134C86.3345 267.377 86.2393 266.861 86.0488 266.585C85.9134 266.382 85.723 266.281 85.4775 266.281ZM85.103 272.876C84.6714 272.876 84.3857 272.912 84.2461 272.984C84.0049 273.115 83.8843 273.293 83.8843 273.517C83.8843 273.733 84.0091 273.928 84.2588 274.101C84.5085 274.279 84.9782 274.368 85.668 274.368C86.2562 274.368 86.7174 274.289 87.0518 274.133C87.3903 273.976 87.5596 273.756 87.5596 273.473C87.5596 273.367 87.5278 273.278 87.4644 273.206C87.3501 273.079 87.1766 272.992 86.9438 272.946C86.7153 272.899 86.1017 272.876 85.103 272.876ZM94.9419 263.393V266.827C95.2677 266.484 95.5661 266.243 95.8369 266.103C96.1077 265.959 96.3892 265.887 96.6812 265.887C97.0535 265.887 97.3709 265.993 97.6333 266.205C97.8999 266.416 98.0755 266.666 98.1602 266.954C98.249 267.237 98.2935 267.717 98.2935 268.395V270.711C98.2935 271.164 98.3358 271.448 98.4204 271.562C98.505 271.672 98.6764 271.742 98.9346 271.771V272H95.9258V271.771C96.1374 271.742 96.2961 271.657 96.4019 271.518C96.478 271.408 96.5161 271.139 96.5161 270.711V268.064C96.5161 267.574 96.4971 267.267 96.459 267.144C96.4209 267.017 96.3553 266.92 96.2622 266.852C96.1733 266.78 96.0718 266.744 95.9575 266.744C95.7882 266.744 95.6232 266.803 95.4624 266.922C95.3016 267.036 95.1281 267.239 94.9419 267.531V270.711C94.9419 271.135 94.9736 271.399 95.0371 271.505C95.1175 271.649 95.2826 271.738 95.5322 271.771V272H92.5234V271.771C92.7731 271.746 92.9508 271.666 93.0566 271.53C93.1286 271.437 93.1646 271.164 93.1646 270.711V264.681C93.1646 264.233 93.1222 263.953 93.0376 263.843C92.9572 263.733 92.7858 263.661 92.5234 263.627V263.393H94.9419ZM102.553 265.887C103.069 265.887 103.549 266.021 103.994 266.287C104.438 266.554 104.774 266.932 105.003 267.423C105.236 267.914 105.352 268.452 105.352 269.036C105.352 269.878 105.138 270.582 104.711 271.149C104.195 271.835 103.482 272.178 102.572 272.178C101.679 272.178 100.991 271.865 100.509 271.238C100.026 270.612 99.7852 269.886 99.7852 269.061C99.7852 268.21 100.031 267.47 100.521 266.839C101.017 266.205 101.694 265.887 102.553 265.887ZM102.578 266.338C102.362 266.338 102.176 266.42 102.02 266.585C101.867 266.746 101.766 267.068 101.715 267.55C101.668 268.028 101.645 268.695 101.645 269.55C101.645 270.003 101.675 270.426 101.734 270.819C101.78 271.12 101.88 271.348 102.032 271.505C102.185 271.661 102.358 271.74 102.553 271.74C102.743 271.74 102.902 271.687 103.029 271.581C103.194 271.437 103.304 271.236 103.359 270.978C103.444 270.576 103.486 269.764 103.486 268.541C103.486 267.821 103.446 267.328 103.365 267.062C103.285 266.791 103.166 266.594 103.01 266.471C102.9 266.382 102.756 266.338 102.578 266.338ZM110.005 265.9L110.1 267.925H109.884C109.626 267.324 109.357 266.913 109.078 266.693C108.803 266.473 108.528 266.363 108.253 266.363C108.079 266.363 107.931 266.423 107.809 266.541C107.686 266.655 107.625 266.789 107.625 266.941C107.625 267.055 107.667 267.165 107.751 267.271C107.887 267.444 108.266 267.743 108.888 268.166C109.51 268.585 109.918 268.943 110.113 269.239C110.312 269.531 110.411 269.859 110.411 270.223C110.411 270.553 110.329 270.876 110.164 271.194C109.999 271.511 109.766 271.755 109.465 271.924C109.165 272.093 108.833 272.178 108.469 272.178C108.185 272.178 107.806 272.089 107.333 271.911C107.206 271.865 107.119 271.841 107.072 271.841C106.933 271.841 106.816 271.947 106.723 272.159H106.514L106.412 270.026H106.628C106.818 270.584 107.079 271.003 107.409 271.283C107.743 271.562 108.058 271.702 108.354 271.702C108.558 271.702 108.723 271.64 108.85 271.518C108.981 271.391 109.046 271.238 109.046 271.061C109.046 270.857 108.983 270.682 108.856 270.534C108.729 270.386 108.445 270.161 108.005 269.861C107.358 269.412 106.939 269.069 106.749 268.833C106.469 268.486 106.33 268.103 106.33 267.684C106.33 267.227 106.486 266.814 106.799 266.446C107.117 266.073 107.574 265.887 108.17 265.887C108.492 265.887 108.803 265.965 109.104 266.122C109.218 266.186 109.311 266.217 109.383 266.217C109.459 266.217 109.52 266.202 109.567 266.173C109.613 266.139 109.688 266.048 109.789 265.9H110.005ZM113.617 271.397V273.606C113.617 273.911 113.64 274.118 113.687 274.228C113.737 274.338 113.813 274.418 113.915 274.469C114.017 274.52 114.215 274.545 114.512 274.545V274.78H111.128V274.545C111.391 274.537 111.585 274.463 111.712 274.323C111.797 274.226 111.839 273.974 111.839 273.568V267.303C111.839 266.884 111.791 266.617 111.693 266.503C111.596 266.384 111.408 266.317 111.128 266.3V266.065H113.617V266.846C113.824 266.541 114.036 266.321 114.251 266.186C114.56 265.987 114.897 265.887 115.261 265.887C115.697 265.887 116.092 266.025 116.448 266.3C116.807 266.575 117.08 266.956 117.267 267.442C117.453 267.925 117.546 268.445 117.546 269.004C117.546 269.605 117.449 270.155 117.254 270.654C117.063 271.149 116.784 271.528 116.416 271.791C116.052 272.049 115.646 272.178 115.197 272.178C114.871 272.178 114.567 272.106 114.283 271.962C114.072 271.852 113.849 271.664 113.617 271.397ZM113.617 270.756C113.981 271.272 114.37 271.53 114.785 271.53C115.013 271.53 115.201 271.41 115.35 271.168C115.57 270.813 115.68 270.136 115.68 269.137C115.68 268.113 115.559 267.413 115.318 267.036C115.157 266.786 114.941 266.662 114.67 266.662C114.243 266.662 113.892 266.971 113.617 267.588V270.756ZM119.983 263.189C120.258 263.189 120.491 263.287 120.682 263.481C120.872 263.672 120.967 263.903 120.967 264.173C120.967 264.444 120.87 264.675 120.675 264.865C120.485 265.056 120.254 265.151 119.983 265.151C119.713 265.151 119.482 265.056 119.292 264.865C119.101 264.675 119.006 264.444 119.006 264.173C119.006 263.903 119.101 263.672 119.292 263.481C119.482 263.287 119.713 263.189 119.983 263.189ZM120.872 266.065V270.769C120.872 271.188 120.921 271.456 121.018 271.575C121.115 271.689 121.306 271.755 121.589 271.771V272H118.384V271.771C118.646 271.763 118.841 271.687 118.968 271.543C119.052 271.446 119.095 271.188 119.095 270.769V267.303C119.095 266.884 119.046 266.617 118.949 266.503C118.851 266.384 118.663 266.317 118.384 266.3V266.065H120.872ZM124.528 263.894V266.065H125.938V266.693H124.528V270.356C124.528 270.699 124.543 270.921 124.573 271.022C124.607 271.12 124.664 271.2 124.744 271.264C124.825 271.323 124.899 271.353 124.966 271.353C125.241 271.353 125.502 271.143 125.747 270.724L125.938 270.864C125.595 271.676 125.038 272.083 124.268 272.083C123.891 272.083 123.572 271.979 123.31 271.771C123.051 271.56 122.886 271.325 122.814 271.067C122.772 270.923 122.751 270.534 122.751 269.899V266.693H121.977V266.471C122.51 266.095 122.963 265.699 123.335 265.284C123.712 264.869 124.04 264.406 124.319 263.894H124.528ZM129.778 271.124C129.054 271.763 128.405 272.083 127.829 272.083C127.491 272.083 127.209 271.972 126.985 271.752C126.761 271.528 126.648 271.249 126.648 270.915C126.648 270.462 126.843 270.056 127.232 269.696C127.622 269.332 128.47 268.849 129.778 268.249V267.652C129.778 267.203 129.752 266.922 129.702 266.808C129.655 266.689 129.564 266.588 129.429 266.503C129.293 266.414 129.141 266.37 128.972 266.37C128.697 266.37 128.47 266.431 128.292 266.554C128.182 266.63 128.127 266.719 128.127 266.82C128.127 266.909 128.187 267.019 128.305 267.15C128.466 267.332 128.546 267.508 128.546 267.677C128.546 267.885 128.468 268.062 128.312 268.21C128.159 268.354 127.958 268.426 127.708 268.426C127.442 268.426 127.218 268.346 127.036 268.185C126.858 268.024 126.769 267.836 126.769 267.62C126.769 267.315 126.89 267.026 127.131 266.75C127.372 266.471 127.708 266.257 128.14 266.109C128.572 265.961 129.02 265.887 129.486 265.887C130.049 265.887 130.493 266.008 130.819 266.249C131.149 266.486 131.363 266.744 131.46 267.023C131.519 267.201 131.549 267.61 131.549 268.249V270.553C131.549 270.824 131.559 270.995 131.581 271.067C131.602 271.135 131.633 271.185 131.676 271.219C131.718 271.253 131.767 271.27 131.822 271.27C131.932 271.27 132.044 271.192 132.158 271.035L132.349 271.188C132.137 271.501 131.917 271.729 131.688 271.873C131.464 272.013 131.208 272.083 130.92 272.083C130.582 272.083 130.317 272.004 130.127 271.848C129.937 271.687 129.82 271.446 129.778 271.124ZM129.778 270.661V268.674C129.266 268.974 128.885 269.296 128.635 269.639C128.47 269.867 128.388 270.098 128.388 270.331C128.388 270.525 128.458 270.697 128.597 270.845C128.703 270.959 128.851 271.016 129.042 271.016C129.253 271.016 129.499 270.898 129.778 270.661ZM135.326 263.393V270.769C135.326 271.188 135.374 271.456 135.472 271.575C135.569 271.689 135.759 271.755 136.043 271.771V272H132.837V271.771C133.1 271.763 133.294 271.687 133.421 271.543C133.506 271.446 133.548 271.188 133.548 270.769V264.624C133.548 264.209 133.5 263.945 133.402 263.831C133.305 263.712 133.117 263.644 132.837 263.627V263.393H135.326ZM140.372 265.9L140.467 267.925H140.251C139.993 267.324 139.725 266.913 139.445 266.693C139.17 266.473 138.895 266.363 138.62 266.363C138.447 266.363 138.299 266.423 138.176 266.541C138.053 266.655 137.992 266.789 137.992 266.941C137.992 267.055 138.034 267.165 138.119 267.271C138.254 267.444 138.633 267.743 139.255 268.166C139.877 268.585 140.285 268.943 140.48 269.239C140.679 269.531 140.778 269.859 140.778 270.223C140.778 270.553 140.696 270.876 140.531 271.194C140.366 271.511 140.133 271.755 139.833 271.924C139.532 272.093 139.2 272.178 138.836 272.178C138.552 272.178 138.174 272.089 137.7 271.911C137.573 271.865 137.486 271.841 137.439 271.841C137.3 271.841 137.183 271.947 137.09 272.159H136.881L136.779 270.026H136.995C137.186 270.584 137.446 271.003 137.776 271.283C138.11 271.562 138.425 271.702 138.722 271.702C138.925 271.702 139.09 271.64 139.217 271.518C139.348 271.391 139.414 271.238 139.414 271.061C139.414 270.857 139.35 270.682 139.223 270.534C139.096 270.386 138.813 270.161 138.373 269.861C137.725 269.412 137.306 269.069 137.116 268.833C136.836 268.486 136.697 268.103 136.697 267.684C136.697 267.227 136.853 266.814 137.167 266.446C137.484 266.073 137.941 265.887 138.538 265.887C138.859 265.887 139.17 265.965 139.471 266.122C139.585 266.186 139.678 266.217 139.75 266.217C139.826 266.217 139.888 266.202 139.934 266.173C139.981 266.139 140.055 266.048 140.156 265.9H140.372ZM147.539 266.687V270.807C147.539 271.204 147.581 271.454 147.666 271.556C147.801 271.712 148.051 271.784 148.415 271.771V272H144.917V271.771C145.184 271.767 145.372 271.738 145.482 271.683C145.596 271.623 145.674 271.543 145.717 271.441C145.759 271.34 145.78 271.128 145.78 270.807V266.687H144.917V266.065H145.78V265.627L145.774 265.329C145.774 264.719 145.996 264.211 146.44 263.805C146.889 263.399 147.494 263.196 148.256 263.196C148.776 263.196 149.161 263.293 149.411 263.488C149.665 263.682 149.792 263.898 149.792 264.135C149.792 264.326 149.714 264.491 149.557 264.63C149.401 264.77 149.193 264.84 148.935 264.84C148.715 264.84 148.539 264.783 148.408 264.668C148.281 264.554 148.218 264.427 148.218 264.288C148.218 264.25 148.23 264.171 148.256 264.053C148.273 263.981 148.281 263.913 148.281 263.85C148.281 263.761 148.256 263.695 148.205 263.653C148.137 263.589 148.055 263.558 147.958 263.558C147.835 263.558 147.731 263.608 147.646 263.71C147.566 263.812 147.526 263.974 147.526 264.199L147.539 265.31V266.065H148.415V266.687H147.539ZM152.064 265.887C152.581 265.887 153.061 266.021 153.505 266.287C153.95 266.554 154.286 266.932 154.515 267.423C154.747 267.914 154.864 268.452 154.864 269.036C154.864 269.878 154.65 270.582 154.223 271.149C153.706 271.835 152.993 272.178 152.083 272.178C151.191 272.178 150.503 271.865 150.021 271.238C149.538 270.612 149.297 269.886 149.297 269.061C149.297 268.21 149.542 267.47 150.033 266.839C150.528 266.205 151.205 265.887 152.064 265.887ZM152.09 266.338C151.874 266.338 151.688 266.42 151.531 266.585C151.379 266.746 151.277 267.068 151.227 267.55C151.18 268.028 151.157 268.695 151.157 269.55C151.157 270.003 151.186 270.426 151.246 270.819C151.292 271.12 151.392 271.348 151.544 271.505C151.696 271.661 151.87 271.74 152.064 271.74C152.255 271.74 152.414 271.687 152.541 271.581C152.706 271.437 152.816 271.236 152.871 270.978C152.955 270.576 152.998 269.764 152.998 268.541C152.998 267.821 152.957 267.328 152.877 267.062C152.797 266.791 152.678 266.594 152.521 266.471C152.411 266.382 152.268 266.338 152.09 266.338ZM158.228 266.065V267.411C158.622 266.797 158.966 266.391 159.263 266.192C159.559 265.989 159.845 265.887 160.12 265.887C160.357 265.887 160.545 265.961 160.685 266.109C160.828 266.253 160.9 266.458 160.9 266.725C160.9 267.009 160.831 267.229 160.691 267.385C160.556 267.542 160.39 267.62 160.196 267.62C159.972 267.62 159.777 267.548 159.612 267.404C159.447 267.26 159.349 267.18 159.32 267.163C159.278 267.138 159.229 267.125 159.174 267.125C159.051 267.125 158.935 267.172 158.825 267.265C158.651 267.409 158.52 267.614 158.431 267.88C158.296 268.291 158.228 268.744 158.228 269.239V270.604L158.234 270.959C158.234 271.2 158.249 271.355 158.279 271.422C158.33 271.537 158.404 271.621 158.501 271.676C158.603 271.727 158.772 271.759 159.009 271.771V272H155.803V271.771C156.061 271.75 156.235 271.681 156.324 271.562C156.417 271.439 156.463 271.12 156.463 270.604V267.322C156.463 266.983 156.446 266.767 156.413 266.674C156.37 266.556 156.309 266.469 156.229 266.414C156.148 266.359 156.006 266.321 155.803 266.3V266.065H158.228ZM166.848 263.393V266.662C167.347 266.145 167.893 265.887 168.486 265.887C168.892 265.887 169.275 266.008 169.635 266.249C169.994 266.486 170.276 266.825 170.479 267.265C170.682 267.705 170.784 268.213 170.784 268.788C170.784 269.436 170.655 270.024 170.396 270.553C170.138 271.082 169.793 271.486 169.362 271.765C168.93 272.04 168.437 272.178 167.883 272.178C167.561 272.178 167.276 272.127 167.026 272.025C166.776 271.924 166.531 271.759 166.29 271.53L165.306 272.171H165.09V264.624C165.09 264.281 165.075 264.07 165.045 263.989C165.003 263.871 164.935 263.784 164.842 263.729C164.753 263.67 164.601 263.636 164.385 263.627V263.393H166.848ZM166.848 267.227V269.867C166.848 270.405 166.861 270.747 166.886 270.896C166.929 271.145 167.03 271.348 167.191 271.505C167.352 271.657 167.557 271.733 167.807 271.733C168.022 271.733 168.207 271.672 168.359 271.549C168.515 271.427 168.645 271.183 168.746 270.819C168.852 270.455 168.905 269.799 168.905 268.852C168.905 267.942 168.791 267.318 168.562 266.979C168.397 266.734 168.175 266.611 167.896 266.611C167.532 266.611 167.182 266.816 166.848 267.227ZM176.814 268.82H173.558C173.596 269.607 173.805 270.229 174.186 270.686C174.478 271.037 174.829 271.213 175.24 271.213C175.494 271.213 175.724 271.143 175.932 271.003C176.139 270.86 176.361 270.604 176.598 270.235L176.814 270.375C176.492 271.031 176.137 271.496 175.748 271.771C175.358 272.042 174.908 272.178 174.396 272.178C173.515 272.178 172.849 271.839 172.396 271.162C172.032 270.616 171.85 269.939 171.85 269.131C171.85 268.141 172.117 267.354 172.65 266.77C173.187 266.181 173.816 265.887 174.535 265.887C175.136 265.887 175.657 266.135 176.097 266.63C176.541 267.121 176.78 267.851 176.814 268.82ZM175.252 268.395C175.252 267.713 175.214 267.246 175.138 266.992C175.066 266.738 174.952 266.545 174.795 266.414C174.707 266.338 174.588 266.3 174.44 266.3C174.22 266.3 174.04 266.408 173.9 266.624C173.651 267 173.526 267.516 173.526 268.172V268.395H175.252ZM179.918 263.894V266.065H181.327V266.693H179.918V270.356C179.918 270.699 179.933 270.921 179.962 271.022C179.996 271.12 180.053 271.2 180.134 271.264C180.214 271.323 180.288 271.353 180.356 271.353C180.631 271.353 180.891 271.143 181.137 270.724L181.327 270.864C180.984 271.676 180.428 272.083 179.658 272.083C179.281 272.083 178.962 271.979 178.699 271.771C178.441 271.56 178.276 271.325 178.204 271.067C178.162 270.923 178.141 270.534 178.141 269.899V266.693H177.366V266.471C177.899 266.095 178.352 265.699 178.725 265.284C179.101 264.869 179.429 264.406 179.708 263.894H179.918ZM184.247 263.894V266.065H185.656V266.693H184.247V270.356C184.247 270.699 184.262 270.921 184.292 271.022C184.325 271.12 184.382 271.2 184.463 271.264C184.543 271.323 184.617 271.353 184.685 271.353C184.96 271.353 185.22 271.143 185.466 270.724L185.656 270.864C185.313 271.676 184.757 272.083 183.987 272.083C183.61 272.083 183.291 271.979 183.028 271.771C182.77 271.56 182.605 271.325 182.533 271.067C182.491 270.923 182.47 270.534 182.47 269.899V266.693H181.695V266.471C182.229 266.095 182.681 265.699 183.054 265.284C183.43 264.869 183.758 264.406 184.038 263.894H184.247ZM191.249 268.82H187.992C188.03 269.607 188.24 270.229 188.621 270.686C188.913 271.037 189.264 271.213 189.674 271.213C189.928 271.213 190.159 271.143 190.366 271.003C190.574 270.86 190.796 270.604 191.033 270.235L191.249 270.375C190.927 271.031 190.571 271.496 190.182 271.771C189.793 272.042 189.342 272.178 188.83 272.178C187.95 272.178 187.283 271.839 186.831 271.162C186.467 270.616 186.285 269.939 186.285 269.131C186.285 268.141 186.551 267.354 187.084 266.77C187.622 266.181 188.25 265.887 188.97 265.887C189.571 265.887 190.091 266.135 190.531 266.63C190.976 267.121 191.215 267.851 191.249 268.82ZM189.687 268.395C189.687 267.713 189.649 267.246 189.573 266.992C189.501 266.738 189.387 266.545 189.23 266.414C189.141 266.338 189.023 266.3 188.875 266.3C188.654 266.3 188.475 266.408 188.335 266.624C188.085 267 187.96 267.516 187.96 268.172V268.395H189.687ZM194.46 266.065V267.411C194.854 266.797 195.199 266.391 195.495 266.192C195.791 265.989 196.077 265.887 196.352 265.887C196.589 265.887 196.777 265.961 196.917 266.109C197.061 266.253 197.133 266.458 197.133 266.725C197.133 267.009 197.063 267.229 196.923 267.385C196.788 267.542 196.623 267.62 196.428 267.62C196.204 267.62 196.009 267.548 195.844 267.404C195.679 267.26 195.582 267.18 195.552 267.163C195.51 267.138 195.461 267.125 195.406 267.125C195.284 267.125 195.167 267.172 195.057 267.265C194.884 267.409 194.752 267.614 194.664 267.88C194.528 268.291 194.46 268.744 194.46 269.239V270.604L194.467 270.959C194.467 271.2 194.482 271.355 194.511 271.422C194.562 271.537 194.636 271.621 194.733 271.676C194.835 271.727 195.004 271.759 195.241 271.771V272H192.036V271.771C192.294 271.75 192.467 271.681 192.556 271.562C192.649 271.439 192.696 271.12 192.696 270.604V267.322C192.696 266.983 192.679 266.767 192.645 266.674C192.603 266.556 192.541 266.469 192.461 266.414C192.381 266.359 192.239 266.321 192.036 266.3V266.065H194.46ZM203.138 263.894V266.065H204.547V266.693H203.138V270.356C203.138 270.699 203.153 270.921 203.182 271.022C203.216 271.12 203.273 271.2 203.354 271.264C203.434 271.323 203.508 271.353 203.576 271.353C203.851 271.353 204.111 271.143 204.356 270.724L204.547 270.864C204.204 271.676 203.648 272.083 202.877 272.083C202.501 272.083 202.181 271.979 201.919 271.771C201.661 271.56 201.496 271.325 201.424 271.067C201.382 270.923 201.36 270.534 201.36 269.899V266.693H200.586V266.471C201.119 266.095 201.572 265.699 201.944 265.284C202.321 264.869 202.649 264.406 202.928 263.894H203.138ZM207.911 265.887C208.427 265.887 208.908 266.021 209.352 266.287C209.796 266.554 210.133 266.932 210.361 267.423C210.594 267.914 210.71 268.452 210.71 269.036C210.71 269.878 210.497 270.582 210.069 271.149C209.553 271.835 208.84 272.178 207.93 272.178C207.037 272.178 206.35 271.865 205.867 271.238C205.385 270.612 205.144 269.886 205.144 269.061C205.144 268.21 205.389 267.47 205.88 266.839C206.375 266.205 207.052 265.887 207.911 265.887ZM207.937 266.338C207.721 266.338 207.535 266.42 207.378 266.585C207.226 266.746 207.124 267.068 207.073 267.55C207.027 268.028 207.003 268.695 207.003 269.55C207.003 270.003 207.033 270.426 207.092 270.819C207.139 271.12 207.238 271.348 207.391 271.505C207.543 271.661 207.716 271.74 207.911 271.74C208.102 271.74 208.26 271.687 208.387 271.581C208.552 271.437 208.662 271.236 208.717 270.978C208.802 270.576 208.844 269.764 208.844 268.541C208.844 267.821 208.804 267.328 208.724 267.062C208.643 266.791 208.525 266.594 208.368 266.471C208.258 266.382 208.114 266.338 207.937 266.338ZM214.075 266.065V266.846C214.401 266.49 214.701 266.243 214.976 266.103C215.255 265.959 215.56 265.887 215.89 265.887C216.271 265.887 216.59 265.976 216.849 266.154C217.107 266.332 217.306 266.602 217.445 266.966C217.784 266.585 218.108 266.31 218.417 266.141C218.73 265.972 219.056 265.887 219.394 265.887C219.805 265.887 220.13 265.982 220.372 266.173C220.617 266.359 220.786 266.598 220.879 266.89C220.977 267.178 221.025 267.639 221.025 268.274V270.705C221.025 271.162 221.066 271.446 221.146 271.556C221.231 271.666 221.404 271.738 221.667 271.771V272H218.601V271.771C218.842 271.75 219.02 271.657 219.134 271.492C219.21 271.378 219.248 271.116 219.248 270.705V268.153C219.248 267.624 219.227 267.288 219.185 267.144C219.142 267 219.075 266.894 218.981 266.827C218.893 266.755 218.787 266.719 218.664 266.719C218.482 266.719 218.298 266.786 218.112 266.922C217.926 267.053 217.737 267.252 217.547 267.519V270.705C217.547 271.132 217.583 271.401 217.655 271.511C217.752 271.668 217.938 271.755 218.213 271.771V272H215.141V271.771C215.306 271.763 215.435 271.723 215.528 271.651C215.626 271.575 215.689 271.486 215.719 271.384C215.753 271.278 215.77 271.052 215.77 270.705V268.153C215.77 267.616 215.748 267.279 215.706 267.144C215.664 267.009 215.592 266.903 215.49 266.827C215.393 266.75 215.287 266.712 215.173 266.712C215.004 266.712 214.849 266.757 214.709 266.846C214.511 266.977 214.299 267.201 214.075 267.519V270.705C214.075 271.124 214.115 271.401 214.195 271.537C214.28 271.668 214.453 271.746 214.716 271.771V272H211.656V271.771C211.906 271.746 212.084 271.666 212.189 271.53C212.261 271.437 212.297 271.162 212.297 270.705V267.354C212.297 266.905 212.255 266.626 212.17 266.516C212.09 266.406 211.919 266.334 211.656 266.3V266.065H214.075ZM225.24 265.887C225.757 265.887 226.237 266.021 226.681 266.287C227.125 266.554 227.462 266.932 227.69 267.423C227.923 267.914 228.04 268.452 228.04 269.036C228.04 269.878 227.826 270.582 227.398 271.149C226.882 271.835 226.169 272.178 225.259 272.178C224.366 272.178 223.679 271.865 223.196 271.238C222.714 270.612 222.473 269.886 222.473 269.061C222.473 268.21 222.718 267.47 223.209 266.839C223.704 266.205 224.381 265.887 225.24 265.887ZM225.266 266.338C225.05 266.338 224.864 266.42 224.707 266.585C224.555 266.746 224.453 267.068 224.402 267.55C224.356 268.028 224.333 268.695 224.333 269.55C224.333 270.003 224.362 270.426 224.421 270.819C224.468 271.12 224.567 271.348 224.72 271.505C224.872 271.661 225.046 271.74 225.24 271.74C225.431 271.74 225.589 271.687 225.716 271.581C225.881 271.437 225.991 271.236 226.046 270.978C226.131 270.576 226.173 269.764 226.173 268.541C226.173 267.821 226.133 267.328 226.053 267.062C225.972 266.791 225.854 266.594 225.697 266.471C225.587 266.382 225.443 266.338 225.266 266.338ZM231.404 266.065V267.411C231.797 266.797 232.142 266.391 232.438 266.192C232.735 265.989 233.02 265.887 233.295 265.887C233.532 265.887 233.721 265.961 233.86 266.109C234.004 266.253 234.076 266.458 234.076 266.725C234.076 267.009 234.006 267.229 233.867 267.385C233.731 267.542 233.566 267.62 233.372 267.62C233.147 267.62 232.953 267.548 232.788 267.404C232.623 267.26 232.525 267.18 232.496 267.163C232.453 267.138 232.405 267.125 232.35 267.125C232.227 267.125 232.111 267.172 232 267.265C231.827 267.409 231.696 267.614 231.607 267.88C231.472 268.291 231.404 268.744 231.404 269.239V270.604L231.41 270.959C231.41 271.2 231.425 271.355 231.455 271.422C231.505 271.537 231.579 271.621 231.677 271.676C231.778 271.727 231.948 271.759 232.185 271.771V272H228.979V271.771C229.237 271.75 229.411 271.681 229.5 271.562C229.593 271.439 229.639 271.12 229.639 270.604V267.322C229.639 266.983 229.622 266.767 229.588 266.674C229.546 266.556 229.485 266.469 229.404 266.414C229.324 266.359 229.182 266.321 228.979 266.3V266.065H231.404ZM237.18 266.065V267.411C237.574 266.797 237.919 266.391 238.215 266.192C238.511 265.989 238.797 265.887 239.072 265.887C239.309 265.887 239.497 265.961 239.637 266.109C239.781 266.253 239.853 266.458 239.853 266.725C239.853 267.009 239.783 267.229 239.643 267.385C239.508 267.542 239.343 267.62 239.148 267.62C238.924 267.62 238.729 267.548 238.564 267.404C238.399 267.26 238.302 267.18 238.272 267.163C238.23 267.138 238.181 267.125 238.126 267.125C238.003 267.125 237.887 267.172 237.777 267.265C237.603 267.409 237.472 267.614 237.383 267.88C237.248 268.291 237.18 268.744 237.18 269.239V270.604L237.187 270.959C237.187 271.2 237.201 271.355 237.231 271.422C237.282 271.537 237.356 271.621 237.453 271.676C237.555 271.727 237.724 271.759 237.961 271.771V272H234.755V271.771C235.014 271.75 235.187 271.681 235.276 271.562C235.369 271.439 235.416 271.12 235.416 270.604V267.322C235.416 266.983 235.399 266.767 235.365 266.674C235.322 266.556 235.261 266.469 235.181 266.414C235.1 266.359 234.958 266.321 234.755 266.3V266.065H237.18ZM243.052 265.887C243.568 265.887 244.048 266.021 244.493 266.287C244.937 266.554 245.273 266.932 245.502 267.423C245.735 267.914 245.851 268.452 245.851 269.036C245.851 269.878 245.637 270.582 245.21 271.149C244.694 271.835 243.981 272.178 243.071 272.178C242.178 272.178 241.49 271.865 241.008 271.238C240.525 270.612 240.284 269.886 240.284 269.061C240.284 268.21 240.53 267.47 241.021 266.839C241.516 266.205 242.193 265.887 243.052 265.887ZM243.077 266.338C242.861 266.338 242.675 266.42 242.519 266.585C242.366 266.746 242.265 267.068 242.214 267.55C242.167 268.028 242.144 268.695 242.144 269.55C242.144 270.003 242.174 270.426 242.233 270.819C242.279 271.12 242.379 271.348 242.531 271.505C242.684 271.661 242.857 271.74 243.052 271.74C243.242 271.74 243.401 271.687 243.528 271.581C243.693 271.437 243.803 271.236 243.858 270.978C243.943 270.576 243.985 269.764 243.985 268.541C243.985 267.821 243.945 267.328 243.864 267.062C243.784 266.791 243.665 266.594 243.509 266.471C243.399 266.382 243.255 266.338 243.077 266.338ZM252.637 272.178L251.012 267.823L249.418 272.178H249.088L247.508 267.874C247.271 267.218 247.07 266.791 246.905 266.592C246.799 266.456 246.638 266.359 246.422 266.3V266.065H249.418V266.3C249.215 266.3 249.076 266.329 249 266.389C248.923 266.448 248.885 266.516 248.885 266.592C248.885 266.664 248.953 266.88 249.088 267.239L249.958 269.556L250.796 267.239L250.732 267.087C250.605 266.77 250.493 266.569 250.396 266.484C250.303 266.395 250.157 266.334 249.958 266.3V266.065H252.999V266.3C252.762 266.312 252.611 266.346 252.548 266.401C252.484 266.452 252.453 266.526 252.453 266.624C252.453 266.717 252.514 266.922 252.637 267.239L253.475 269.556L254.236 267.423C254.346 267.119 254.401 266.911 254.401 266.801C254.401 266.636 254.361 266.516 254.281 266.439C254.2 266.363 254.044 266.317 253.811 266.3V266.065H255.569V266.3C255.375 266.325 255.22 266.395 255.106 266.509C254.992 266.619 254.844 266.937 254.662 267.461L252.999 272.178H252.637Z" fill="#94662D"/>
<path d="M59.6396 243.421V251.771C59.6396 253.382 59.7349 254.4 59.9253 254.825C60.1304 255.235 60.4819 255.564 60.98 255.813C61.478 256.062 62.4082 256.187 63.7705 256.187V257H48.5215V256.187C49.8984 256.187 50.8286 256.062 51.312 255.813C51.8101 255.55 52.1543 255.213 52.3447 254.803C52.5498 254.393 52.6523 253.382 52.6523 251.771V232.435C52.6523 230.823 52.5498 229.812 52.3447 229.402C52.1543 228.978 51.8101 228.641 51.312 228.392C50.814 228.143 49.8838 228.018 48.5215 228.018V227.205H62.3643C65.9678 227.205 68.6045 227.454 70.2744 227.952C71.9443 228.45 73.3066 229.373 74.3613 230.721C75.416 232.054 75.9434 233.621 75.9434 235.423C75.9434 237.62 75.1523 239.437 73.5703 240.872C72.5596 241.78 71.146 242.461 69.3296 242.916L76.4927 253.001C77.4302 254.305 78.0967 255.118 78.4922 255.44C79.0928 255.894 79.7886 256.143 80.5796 256.187V257H71.1973L61.5952 243.421H59.6396ZM59.6396 228.809V241.861H60.8921C62.9282 241.861 64.4517 241.678 65.4624 241.312C66.4731 240.931 67.2642 240.257 67.8354 239.29C68.4214 238.309 68.7144 237.034 68.7144 235.467C68.7144 233.196 68.1797 231.519 67.1104 230.435C66.0557 229.351 64.3491 228.809 61.9907 228.809H59.6396ZM91.4121 235.84C93.1992 235.84 94.8618 236.302 96.3999 237.225C97.938 238.147 99.1025 239.458 99.8936 241.158C100.699 242.857 101.102 244.717 101.102 246.739C101.102 249.654 100.362 252.093 98.8828 254.056C97.0957 256.429 94.6274 257.615 91.478 257.615C88.3872 257.615 86.0068 256.531 84.3369 254.363C82.667 252.195 81.832 249.683 81.832 246.827C81.832 243.882 82.6816 241.319 84.3809 239.136C86.0947 236.939 88.4385 235.84 91.4121 235.84ZM91.5 237.4C90.7529 237.4 90.1084 237.686 89.5664 238.257C89.0391 238.814 88.6875 239.927 88.5117 241.597C88.3506 243.252 88.27 245.56 88.27 248.519C88.27 250.086 88.3726 251.551 88.5776 252.913C88.7388 253.953 89.083 254.744 89.6104 255.286C90.1377 255.828 90.7383 256.099 91.4121 256.099C92.0713 256.099 92.6206 255.916 93.0601 255.55C93.6313 255.052 94.0122 254.356 94.2026 253.462C94.4956 252.071 94.6421 249.258 94.6421 245.025C94.6421 242.535 94.5029 240.828 94.2246 239.905C93.9463 238.968 93.5361 238.287 92.9941 237.862C92.6133 237.554 92.1152 237.4 91.5 237.4ZM112.264 227.205V252.737C112.264 254.188 112.433 255.118 112.77 255.528C113.106 255.923 113.766 256.15 114.747 256.209V257H103.651V256.209C104.559 256.18 105.233 255.916 105.672 255.418C105.965 255.081 106.112 254.188 106.112 252.737V231.468C106.112 230.032 105.943 229.117 105.606 228.721C105.27 228.311 104.618 228.077 103.651 228.018V227.205H112.264ZM124.789 227.205V252.737C124.789 254.188 124.957 255.118 125.294 255.528C125.631 255.923 126.29 256.15 127.271 256.209V257H116.175V256.209C117.083 256.18 117.757 255.916 118.197 255.418C118.49 255.081 118.636 254.188 118.636 252.737V231.468C118.636 230.032 118.468 229.117 118.131 228.721C117.794 228.311 117.142 228.077 116.175 228.018V227.205H124.789ZM147.772 241.202C150.599 241.861 152.584 242.659 153.727 243.597C155.367 244.93 156.188 246.658 156.188 248.782C156.188 251.023 155.287 252.876 153.485 254.341C151.273 256.114 148.058 257 143.839 257H128.7V256.187C130.077 256.187 131.007 256.062 131.49 255.813C131.988 255.55 132.333 255.213 132.523 254.803C132.728 254.393 132.831 253.382 132.831 251.771V232.435C132.831 230.823 132.728 229.812 132.523 229.402C132.333 228.978 131.988 228.641 131.49 228.392C130.992 228.143 130.062 228.018 128.7 228.018V227.205H142.982C146.395 227.205 148.812 227.513 150.233 228.128C151.654 228.729 152.774 229.637 153.595 230.853C154.415 232.054 154.825 233.335 154.825 234.698C154.825 236.133 154.305 237.415 153.265 238.543C152.225 239.656 150.394 240.542 147.772 241.202ZM139.774 240.608C141.854 240.608 143.385 240.374 144.366 239.905C145.362 239.437 146.124 238.777 146.651 237.928C147.179 237.078 147.442 235.994 147.442 234.676C147.442 233.357 147.179 232.281 146.651 231.446C146.139 230.596 145.399 229.952 144.432 229.512C143.465 229.073 141.913 228.86 139.774 228.875V240.608ZM139.774 242.322V251.88L139.752 252.979C139.752 253.77 139.95 254.371 140.345 254.781C140.755 255.176 141.356 255.374 142.147 255.374C143.319 255.374 144.396 255.118 145.377 254.605C146.373 254.078 147.135 253.323 147.662 252.342C148.189 251.346 148.453 250.24 148.453 249.024C148.453 247.632 148.131 246.387 147.486 245.289C146.842 244.175 145.956 243.399 144.828 242.959C143.7 242.52 142.015 242.308 139.774 242.322ZM170.624 253.968C168.119 256.18 165.87 257.286 163.878 257.286C162.706 257.286 161.732 256.905 160.956 256.143C160.179 255.367 159.791 254.4 159.791 253.243C159.791 251.675 160.465 250.269 161.812 249.024C163.16 247.764 166.097 246.094 170.624 244.014V241.949C170.624 240.396 170.536 239.422 170.36 239.026C170.199 238.616 169.884 238.265 169.415 237.972C168.946 237.664 168.419 237.51 167.833 237.51C166.881 237.51 166.097 237.723 165.482 238.147C165.101 238.411 164.911 238.719 164.911 239.07C164.911 239.378 165.116 239.759 165.526 240.213C166.083 240.843 166.361 241.451 166.361 242.037C166.361 242.754 166.09 243.37 165.548 243.882C165.021 244.38 164.325 244.629 163.46 244.629C162.538 244.629 161.761 244.351 161.131 243.794C160.516 243.238 160.208 242.586 160.208 241.839C160.208 240.784 160.626 239.781 161.461 238.829C162.296 237.862 163.46 237.122 164.955 236.609C166.449 236.097 168.001 235.84 169.613 235.84C171.561 235.84 173.099 236.258 174.227 237.093C175.37 237.913 176.109 238.807 176.446 239.773C176.651 240.389 176.754 241.802 176.754 244.014V251.99C176.754 252.928 176.791 253.521 176.864 253.77C176.937 254.004 177.047 254.18 177.193 254.297C177.34 254.415 177.508 254.473 177.699 254.473C178.08 254.473 178.468 254.202 178.863 253.66L179.522 254.188C178.79 255.271 178.028 256.062 177.237 256.561C176.461 257.044 175.575 257.286 174.579 257.286C173.407 257.286 172.491 257.015 171.832 256.473C171.173 255.916 170.77 255.081 170.624 253.968ZM170.624 252.364V245.486C168.851 246.526 167.533 247.64 166.668 248.826C166.097 249.617 165.812 250.416 165.812 251.221C165.812 251.895 166.053 252.488 166.537 253.001C166.903 253.396 167.416 253.594 168.075 253.594C168.807 253.594 169.657 253.184 170.624 252.364ZM198.551 251.705L199.232 252.232C198.265 254.048 197.057 255.403 195.606 256.297C194.171 257.176 192.64 257.615 191.014 257.615C188.275 257.615 186.085 256.583 184.444 254.517C182.804 252.452 181.983 249.969 181.983 247.068C181.983 244.271 182.73 241.81 184.225 239.686C186.026 237.122 188.509 235.84 191.673 235.84C193.797 235.84 195.482 236.375 196.727 237.444C197.987 238.514 198.617 239.708 198.617 241.026C198.617 241.861 198.36 242.527 197.848 243.025C197.35 243.523 196.69 243.772 195.87 243.772C195.006 243.772 194.288 243.487 193.717 242.916C193.16 242.344 192.816 241.326 192.684 239.861C192.596 238.938 192.384 238.294 192.047 237.928C191.71 237.562 191.314 237.378 190.86 237.378C190.157 237.378 189.557 237.752 189.059 238.499C188.297 239.627 187.916 241.355 187.916 243.685C187.916 245.618 188.224 247.471 188.839 249.244C189.454 251.001 190.296 252.312 191.366 253.177C192.171 253.807 193.124 254.122 194.222 254.122C194.94 254.122 195.621 253.953 196.266 253.616C196.91 253.279 197.672 252.642 198.551 251.705ZM210.13 227.205V246.805L214.898 242.125C215.88 241.172 216.488 240.484 216.722 240.059C216.971 239.634 217.096 239.224 217.096 238.829C217.096 238.433 216.935 238.104 216.612 237.84C216.29 237.576 215.66 237.386 214.723 237.269V236.456H223.929V237.269C223.05 237.312 222.281 237.525 221.622 237.906C220.963 238.272 219.674 239.393 217.755 241.268L215.514 243.465L220.348 250.54C222.296 253.411 223.453 255.022 223.819 255.374C224.317 255.872 224.947 256.15 225.709 256.209V257H215.096V256.209C215.565 256.209 215.902 256.121 216.107 255.945C216.327 255.77 216.437 255.579 216.437 255.374C216.437 255.037 216.129 254.415 215.514 253.506L211.449 247.552L210.13 248.848V252.54C210.13 254.107 210.277 255.088 210.57 255.484C210.863 255.865 211.463 256.106 212.372 256.209V257H201.759V256.209C202.623 256.121 203.238 255.843 203.604 255.374C203.854 255.052 203.978 254.107 203.978 252.54V231.666C203.978 230.113 203.832 229.146 203.539 228.765C203.26 228.384 202.667 228.135 201.759 228.018V227.205H210.13Z" fill="url(#paint4_linear_1066_306)"/>
<defs>
<filter id="filter0_iii_1066_306" x="69" y="0" width="135" height="139" filterUnits="userSpaceOnUse" color-interpolation-filters="sRGB">
<feFlood flood-opacity="0" result="BackgroundImageFix"/>
<feBlend mode="normal" in="SourceGraphic" in2="BackgroundImageFix" result="shape"/>
<feColorMatrix in="SourceAlpha" type="matrix" values="0 0 0 0 0 0 0 0 0 0 0 0 0 0 0 0 0 0 127 0" result="hardAlpha"/>
<feOffset dy="4"/>
<feGaussianBlur stdDeviation="2"/>
<feComposite in2="hardAlpha" operator="arithmetic" k2="-1" k3="1"/>
<feColorMatrix type="matrix" values="0 0 0 0 0 0 0 0 0 0 0 0 0 0 0 0 0 0 0.25 0"/>
<feBlend mode="normal" in2="shape" result="effect1_innerShadow_1066_306"/>
<feColorMatrix in="SourceAlpha" type="matrix" values="0 0 0 0 0 0 0 0 0 0 0 0 0 0 0 0 0 0 127 0" result="hardAlpha"/>
<feOffset dy="4"/>
<feGaussianBlur stdDeviation="2"/>
<feComposite in2="hardAlpha" operator="arithmetic" k2="-1" k3="1"/>
<feColorMatrix type="matrix" values="0 0 0 0 0 0 0 0 0 0 0 0 0 0 0 0 0 0 0.25 0"/>
<feBlend mode="normal" in2="effect1_innerShadow_1066_306" result="effect2_innerShadow_1066_306"/>
<feColorMatrix in="SourceAlpha" type="matrix" values="0 0 0 0 0 0 0 0 0 0 0 0 0 0 0 0 0 0 127 0" result="hardAlpha"/>
<feOffset dy="4"/>
<feGaussianBlur stdDeviation="2"/>
<feComposite in2="hardAlpha" operator="arithmetic" k2="-1" k3="1"/>
<feColorMatrix type="matrix" values="0 0 0 0 0 0 0 0 0 0 0 0 0 0 0 0 0 0 0.25 0"/>
<feBlend mode="normal" in2="effect2_innerShadow_1066_306" result="effect3_innerShadow_1066_306"/>
</filter>
<linearGradient id="paint0_linear_1066_306" x1="73.5" y1="64.7998" x2="183.75" y2="64.7998" gradientUnits="userSpaceOnUse">
<stop stop-color="#FAEF9E"/>
<stop offset="1" stop-color="#996C32"/>
</linearGradient>
<linearGradient id="paint1_linear_1066_306" x1="56.85" y1="49.9499" x2="134.7" y2="50.8499" gradientUnits="userSpaceOnUse">
<stop stop-color="#996C32"/>
<stop offset="0.801053" stop-color="#996C32" stop-opacity="0.93"/>
<stop offset="1" stop-color="#906029" stop-opacity="0.13"/>
<stop offset="1" stop-color="#94662D"/>
</linearGradient>
<linearGradient id="paint2_linear_1066_306" x1="86.1" y1="63.9001" x2="228.75" y2="63.9001" gradientUnits="userSpaceOnUse">
<stop stop-color="#996C32"/>
<stop offset="1" stop-color="#996C32"/>
</linearGradient>
<linearGradient id="paint3_linear_1066_306" x1="-7.91304" y1="164.25" x2="290.851" y2="160.988" gradientUnits="userSpaceOnUse">
<stop stop-color="#906029"/>
<stop offset="0.472816" stop-color="#FAEF9E"/>
<stop offset="0.741212" stop-color="#94662D"/>
<stop offset="1" stop-color="#996C32"/>
</linearGradient>
<linearGradient id="paint4_linear_1066_306" x1="-7.91304" y1="164.25" x2="290.851" y2="160.988" gradientUnits="userSpaceOnUse">
<stop offset="0.191666" stop-color="#906029"/>
<stop offset="0.472816" stop-color="#FAEF9E"/>
<stop offset="0.741212" stop-color="#94662D"/>
<stop offset="1" stop-color="#996C32"/>
</linearGradient>
</defs>
</svg>
